<?xml version="1.0" standalone="no"?><!DOCTYPE svg PUBLIC "-//W3C//DTD SVG 1.1//EN" "http://www.w3.org/Graphics/SVG/1.1/DTD/svg11.dtd"><svg xmlns="http://www.w3.org/2000/svg" version="1.1" width="2279.833" height="630.667" xmlns:xlink="http://www.w3.org/1999/xlink" xlink="http://www.w3.org/1999/xlink" style="position:relative;overflow:hidden;" viewBox="138 103.833 2279.833 630.667"><defs/><g><g width="1767.75" height="0" transform="scale(1,1) translate(487.917,419.167)"><g fill="#545454" stroke="#545454" stroke-opacity="1" transform="scale(1,1) translate(0,0)"><path fill="none" stroke-width="1" stroke-dasharray="none" d="M0,0 L1404.583,0 M0,0 L0,0 M1761.75,0 L1404.583,0 M0,0 L0,0 M0,0 L0,0 M663.75,0 L663.75,0 M663.75,0 L663.75,0 M1404.583,0 L1404.583,0 M1404.583,0 L1404.583,0"/><g><g stroke-dasharray="none"><path d="M1761.75,-3L1767.75,0L1761.75,3z" stroke="none" fill-opacity="1"/></g></g></g></g><g width="279.917" height="226.333" transform="scale(1,1) translate(891.25,419.167)"><g fill="#545454" stroke="#545454" stroke-opacity="1" transform="scale(1,1) translate(0,0)"><path fill="none" stroke-width="1" stroke-dasharray="none" d="M215.583,44.833 L64.333,196.083 M215.583,44.833 L260.417,0 M64.333,196.083 L34.083,226.333 M221.583,44.833 L279.917,44.833 M179.333,75.083 L121,75.083 M161.083,105.333 L219.417,105.333 M118.833,135.583 L60.5,135.583 M100.583,165.833 L158.917,165.833 M58.333,196.083 L0,196.083"/><g><g stroke-dasharray="none"><path d="M221.583,47.833L215.583,44.833L221.583,41.833z" stroke="none" fill-opacity="1"/></g><g stroke-dasharray="none"><path d="M179.333,72.083L185.333,75.083L179.333,78.083z" stroke="none" fill-opacity="1"/></g><g stroke-dasharray="none"><path d="M161.083,108.333L155.083,105.333L161.083,102.333z" stroke="none" fill-opacity="1"/></g><g stroke-dasharray="none"><path d="M118.833,132.583L124.833,135.583L118.833,138.583z" stroke="none" fill-opacity="1"/></g><g stroke-dasharray="none"><path d="M100.583,168.833L94.583,165.833L100.583,162.833z" stroke="none" fill-opacity="1"/></g><g stroke-dasharray="none"><path d="M58.333,193.083L64.333,196.083L58.333,199.083z" stroke="none" fill-opacity="1"/></g></g></g></g><g width="245.833" height="226.333" transform="scale(1,1) translate(925.333,192.833)"><g fill="#545454" stroke="#545454" stroke-opacity="1" transform="scale(1,1) translate(0,0)"><path fill="none" stroke-width="1" stroke-dasharray="none" d="M121,121 L181.5,181.5 M121,121 L0,0 M181.5,181.5 L226.333,226.333 M127,121 L185.333,121 M145.25,151.25 L86.917,151.25 M187.5,181.5 L245.833,181.5"/><g><g stroke-dasharray="none"><path d="M127,124L121,121L127,118z" stroke="none" fill-opacity="1"/></g><g stroke-dasharray="none"><path d="M145.25,148.25L151.25,151.25L145.25,154.25z" stroke="none" fill-opacity="1"/></g><g stroke-dasharray="none"><path d="M187.5,184.5L181.5,181.5L187.5,178.5z" stroke="none" fill-opacity="1"/></g></g></g></g><g width="245.833" height="226.333" transform="scale(1,1) translate(1666.167,419.167)"><g fill="#545454" stroke="#545454" stroke-opacity="1" transform="scale(1,1) translate(0,0)"><path fill="none" stroke-width="1" stroke-dasharray="none" d="M181.5,44.833 L151.25,75.083 M181.5,44.833 L226.333,0 M151.25,75.083 L0,226.333 M187.5,44.833 L245.833,44.833 M145.25,75.083 L86.917,75.083"/><g><g stroke-dasharray="none"><path d="M187.5,47.833L181.5,44.833L187.5,41.833z" stroke="none" fill-opacity="1"/></g><g stroke-dasharray="none"><path d="M145.25,72.083L151.25,75.083L145.25,78.083z" stroke="none" fill-opacity="1"/></g></g></g></g><g width="245.833" height="226.333" transform="scale(1,1) translate(1666.167,192.833)"><g fill="#545454" stroke="#545454" stroke-opacity="1" transform="scale(1,1) translate(0,0)"><path fill="none" stroke-width="1" stroke-dasharray="none" d="M181.5,181.5 L181.5,181.5 M181.5,181.5 L0,0 M181.5,181.5 L226.333,226.333 M187.5,181.5 L245.833,181.5"/><g><g stroke-dasharray="none"><path d="M187.5,184.5L181.5,181.5L187.5,178.5z" stroke="none" fill-opacity="1"/></g></g></g></g><g width="149.667" height="75" transform="scale(1,1) translate(1591.333,645.5)"><g width="149.667" height="75" transform="scale(1,1) translate(0,0)" stroke="#FEBAB2" stroke-width="4" stroke-dasharray="none" fill="#FFFFFF" fill-opacity="1" stroke-opacity="1"><ellipse rx="74.8335" ry="37.5" cx="74.8335" cy="37.5"/></g><g width="103.16666666666666" height="50.166666666666664" transform="scale(1,1) translate(23.167,12.5)"><text width="103.16666666666666" height="15.624999046325684" transform="scale(1,1) translate(0,17.27083381017049)" xml:space="preserve"><tspan xml:space="preserve" text-rendering="optimizeSpeed" font-size="13.88888888888889" font-weight="normal" font-style="normal" text-decoration="none" fill="#333333" opacity="1" x="22.254" text-anchor="start" y="12.5" textLength="58.658851623535156" style="font-family: Arial, Helvetica Neue, Helvetica, sans-serif;">Ambiente</tspan></text></g></g><g width="149.667" height="75" transform="scale(1,1) translate(1591.333,117.833)"><g width="149.667" height="75" transform="scale(1,1) translate(0,0)" stroke="#FEBAB2" stroke-width="4" stroke-dasharray="none" fill="#FFFFFF" fill-opacity="1" stroke-opacity="1"><ellipse rx="74.8335" ry="37.5" cx="74.8335" cy="37.5"/></g><g width="103.16666666666666" height="50.166666666666664" transform="scale(1,1) translate(23.167,12.333)"><text width="103.16666666666666" height="15.624999046325684" transform="scale(1,1) translate(0,17.27083381017049)" xml:space="preserve"><tspan xml:space="preserve" text-rendering="optimizeSpeed" font-size="13.88888888888889" font-weight="normal" font-style="normal" text-decoration="none" fill="#333333" opacity="1" x="23.418" text-anchor="start" y="12.5" textLength="56.33137893676758" style="font-family: Arial, Helvetica Neue, Helvetica, sans-serif;">Materiais</tspan></text></g></g><g width="149.667" height="75" transform="scale(1,1) translate(850.5,645.5)"><g width="149.667" height="75" transform="scale(1,1) translate(0,0)" stroke="#FEBAB2" stroke-width="4" stroke-dasharray="none" fill="#FFFFFF" fill-opacity="1" stroke-opacity="1"><ellipse rx="74.8335" ry="37.5" cx="74.8335" cy="37.5"/></g><g width="103" height="50.166666666666664" transform="scale(1,1) translate(23.333,12.5)"><text width="103" height="15.624999046325684" transform="scale(1,1) translate(0,17.27083381017049)" xml:space="preserve"><tspan xml:space="preserve" text-rendering="optimizeSpeed" font-size="13.88888888888889" font-weight="normal" font-style="normal" text-decoration="none" fill="#333333" opacity="1" x="24.872" text-anchor="start" y="12.5" textLength="53.25520706176758" style="font-family: Arial, Helvetica Neue, Helvetica, sans-serif;">Pessoas</tspan></text></g></g><g width="149.667" height="75" transform="scale(1,1) translate(850.5,117.833)"><g width="149.667" height="75" transform="scale(1,1) translate(0,0)" stroke="#FEBAB2" stroke-width="4" stroke-dasharray="none" fill="#FFFFFF" fill-opacity="1" stroke-opacity="1"><ellipse rx="74.8335" ry="37.5" cx="74.8335" cy="37.5"/></g><g width="103" height="50.166666666666664" transform="scale(1,1) translate(23.333,12.333)"><text width="103" height="15.624999046325684" transform="scale(1,1) translate(0,17.27083381017049)" xml:space="preserve"><tspan xml:space="preserve" text-rendering="optimizeSpeed" font-size="13.88888888888889" font-weight="normal" font-style="normal" text-decoration="none" fill="#333333" opacity="1" x="28.339" text-anchor="start" y="12.5" textLength="46.32161331176758" style="font-family: Arial, Helvetica Neue, Helvetica, sans-serif;">Método</tspan></text></g></g><g width="149.667" height="75" transform="scale(1,1) translate(2255.667,381.667)"><g transform="scale(1,1) translate(0,0)" stroke="#FEBAB2" fill="#FEBAB2" fill-opacity="1" stroke-opacity="1"><path d="M0,15 a15,15 0 0,1 15,-15 l119.667,0 a15,15 0 0,1 15,15 l0,45 a15,15 0 0,1 -15,15 l-119.667,0 a15,15 0 0,1 -15,-15 z" stroke-width="1" stroke-dasharray="none"/></g><g width="140" height="65.33333333333333" transform="scale(1,1) translate(4.833,4.833)"><text width="140" height="31.249998092651367" transform="scale(1,1) translate(0,17.04166762034098)" xml:space="preserve"><tspan xml:space="preserve" text-rendering="optimizeSpeed" font-size="13.88888888888889" font-weight="normal" font-style="normal" text-decoration="none" fill="#333333" opacity="1" x="3.244" text-anchor="start" y="12.5" textLength="129.65493774414062" style="font-family: Arial, Helvetica Neue, Helvetica, sans-serif;">Falta de interesse na</tspan><tspan xml:space="preserve" text-rendering="optimizeSpeed" font-size="13.88888888888889" font-weight="normal" font-style="normal" text-decoration="none" fill="#333333" opacity="1" x="15.597" text-anchor="start" y="28.125" textLength="108.80534362792969" style="font-family: Arial, Helvetica Neue, Helvetica, sans-serif;">Aplicação Fitness</tspan></text></g></g><g width="149.667" height="75" transform="scale(1,1) translate(186.75,645.5)"><g width="149.667" height="75" transform="scale(1,1) translate(0,0)" stroke="#FEBAB2" stroke-width="4" stroke-dasharray="none" fill="#FFFFFF" fill-opacity="1" stroke-opacity="1"><ellipse rx="74.8335" ry="37.5" cx="74.8335" cy="37.5"/></g><g width="103" height="50.166666666666664" transform="scale(1,1) translate(23.333,12.5)"><text width="103" height="15.624999046325684" transform="scale(1,1) translate(0,17.27083381017049)" xml:space="preserve"><tspan xml:space="preserve" text-rendering="optimizeSpeed" font-size="13.88888888888889" font-weight="normal" font-style="normal" text-decoration="none" fill="#333333" opacity="1" x="25.255" text-anchor="start" y="12.5" textLength="52.490230560302734" style="font-family: Arial, Helvetica Neue, Helvetica, sans-serif;">Medição</tspan></text></g></g><g width="245.833" height="226.333" transform="scale(1,1) translate(261.583,419.167)"><g fill="#545454" stroke="#545454" stroke-opacity="1" transform="scale(1,1) translate(0,0)"><path fill="none" stroke-width="1" stroke-dasharray="none" d="M181.5,44.833 L90.75,135.583 M181.5,44.833 L226.333,0 M90.75,135.583 L0,226.333 M187.5,44.833 L245.833,44.833 M145.25,75.083 L86.917,75.083 M127,105.333 L185.333,105.333 M84.75,135.583 L26.417,135.583"/><g><g stroke-dasharray="none"><path d="M187.5,47.833L181.5,44.833L187.5,41.833z" stroke="none" fill-opacity="1"/></g><g stroke-dasharray="none"><path d="M145.25,72.083L151.25,75.083L145.25,78.083z" stroke="none" fill-opacity="1"/></g><g stroke-dasharray="none"><path d="M127,108.333L121,105.333L127,102.333z" stroke="none" fill-opacity="1"/></g><g stroke-dasharray="none"><path d="M84.75,132.583L90.75,135.583L84.75,138.583z" stroke="none" fill-opacity="1"/></g></g></g></g><g width="226.333" height="226.333" transform="scale(1,1) translate(261.583,192.833)"><g fill="#545454" stroke="#545454" stroke-opacity="1" transform="scale(1,1) translate(0,0)"><path fill="none" stroke-width="1" stroke-dasharray="none" d="M151.25,151.25 L181.5,181.5 M151.25,151.25 L0,0 M181.5,181.5 L226.333,226.333 M157.25,151.25 L215.583,151.25 M175.5,181.5 L117.167,181.5"/><g><g stroke-dasharray="none"><path d="M157.25,154.25L151.25,151.25L157.25,148.25z" stroke="none" fill-opacity="1"/></g><g stroke-dasharray="none"><path d="M175.5,178.5L181.5,181.5L175.5,184.5z" stroke="none" fill-opacity="1"/></g></g></g></g><g width="149.667" height="75" transform="scale(1,1) translate(186.75,117.833)"><g width="149.667" height="75" transform="scale(1,1) translate(0,0)" stroke="#FEBAB2" stroke-width="4" stroke-dasharray="none" fill="#FFFFFF" fill-opacity="1" stroke-opacity="1"><ellipse rx="74.8335" ry="37.5" cx="74.8335" cy="37.5"/></g><g width="103" height="50.166666666666664" transform="scale(1,1) translate(23.333,12.333)"><text width="103" height="15.624999046325684" transform="scale(1,1) translate(0,17.27083381017049)" xml:space="preserve"><tspan xml:space="preserve" text-rendering="optimizeSpeed" font-size="13.88888888888889" font-weight="normal" font-style="normal" text-decoration="none" fill="#333333" opacity="1" x="24.864" text-anchor="start" y="12.5" textLength="53.271480560302734" style="font-family: Arial, Helvetica Neue, Helvetica, sans-serif;">Máquina</tspan></text></g></g><g width="200" height="15.667" transform="scale(1,1) translate(477.167,336.25)"><g stroke="#545454" stroke-opacity="1" stroke-width="0" stroke-dasharray="none" width="200" height="15.667" transform="scale(1,1) translate(0,0)" fill="none"><rect width="200" height="15.667"/></g><g width="200" height="15.666666666666666" transform="scale(1,1) translate(0,0)"><text width="200" height="15.624999046325684" transform="scale(1,1) translate(0,0.02083381017049124)" xml:space="preserve"><tspan xml:space="preserve" text-rendering="optimizeSpeed" font-size="13.88888888888889" font-weight="normal" font-style="normal" text-decoration="none" fill="#333333" opacity="1" x="0.049" text-anchor="start" y="12.5" textLength="199.90234375" style="font-family: Arial, Helvetica Neue, Helvetica, sans-serif;">Não consegue rodar a aplicação</tspan></text></g></g><g width="173.667" height="15.667" transform="scale(1,1) translate(1171.167,456.167)"><g stroke="#545454" stroke-opacity="1" stroke-width="0" stroke-dasharray="none" width="173.667" height="15.667" transform="scale(1,1) translate(0,0)" fill="none"><rect width="173.667" height="15.667"/></g><g width="173.66666666666666" height="15.666666666666666" transform="scale(1,1) translate(0,0)"><text width="173.66666666666666" height="15.624999046325684" transform="scale(1,1) translate(0,0.02083381017049124)" xml:space="preserve"><tspan xml:space="preserve" text-rendering="optimizeSpeed" font-size="13.88888888888889" font-weight="normal" font-style="normal" text-decoration="none" fill="#333333" opacity="1" x="0.001" text-anchor="start" y="12.5" textLength="173.6653594970703" style="font-family: Arial, Helvetica Neue, Helvetica, sans-serif;">Falta de engajamento social</tspan></text></g></g><g width="213.833" height="15.5" transform="scale(1,1) translate(798.417,486.5)"><g stroke="#545454" stroke-opacity="1" stroke-width="0" stroke-dasharray="none" width="213.833" height="15.5" transform="scale(1,1) translate(0,0)" fill="none"><rect width="213.833" height="15.5"/></g><g width="213.83333333333331" height="15.624999046325684" transform="scale(1,1) translate(0,0)"><text width="213.83333333333331" height="15.624999046325684" transform="scale(1,1) translate(0,0)" xml:space="preserve"><tspan xml:space="preserve" text-rendering="optimizeSpeed" font-size="13.88888888888889" font-weight="normal" font-style="normal" text-decoration="none" fill="#333333" opacity="1" x="0.024" text-anchor="start" y="12.5" textLength="213.78579711914062" style="font-family: Arial, Helvetica Neue, Helvetica, sans-serif;">Falta de coerção entre os usuários</tspan></text></g></g><g width="300.333" height="15.667" transform="scale(1,1) translate(1110.667,516.667)"><g stroke="#545454" stroke-opacity="1" stroke-width="0" stroke-dasharray="none" width="300.333" height="15.667" transform="scale(1,1) translate(0,0)" fill="none"><rect width="300.333" height="15.667"/></g><g width="300.3333333333333" height="15.666666666666666" transform="scale(1,1) translate(0,0)"><text width="300.3333333333333" height="15.624999046325684" transform="scale(1,1) translate(0,0.02083381017049124)" xml:space="preserve"><tspan xml:space="preserve" text-rendering="optimizeSpeed" font-size="13.88888888888889" font-weight="normal" font-style="normal" text-decoration="none" fill="#333333" opacity="1" x="0.053" text-anchor="start" y="12.5" textLength="300.22784423828125" style="font-family: Arial, Helvetica Neue, Helvetica, sans-serif;">Pouco contato entre desenvolvimento e usuários</tspan></text></g></g><g width="240.833" height="15.667" transform="scale(1,1) translate(710.917,546.833)"><g stroke="#545454" stroke-opacity="1" stroke-width="0" stroke-dasharray="none" width="240.833" height="15.667" transform="scale(1,1) translate(0,0)" fill="none"><rect width="240.833" height="15.667"/></g><g width="240.83333333333331" height="15.666666666666666" transform="scale(1,1) translate(0,0)"><text width="240.83333333333331" height="15.624999046325684" transform="scale(1,1) translate(0,0.02083381017049124)" xml:space="preserve"><tspan xml:space="preserve" text-rendering="optimizeSpeed" font-size="13.88888888888889" font-weight="normal" font-style="normal" text-decoration="none" fill="#333333" opacity="1" x="0.015" text-anchor="start" y="12.5" textLength="240.8040313720703" style="font-family: Arial, Helvetica Neue, Helvetica, sans-serif;">Não respeito ao feedback dos usuários</tspan></text></g></g><g width="152.833" height="15.667" transform="scale(1,1) translate(1110.667,306)"><g stroke="#545454" stroke-opacity="1" stroke-width="0" stroke-dasharray="none" width="152.833" height="15.667" transform="scale(1,1) translate(0,0)" fill="none"><rect width="152.833" height="15.667"/></g><g width="152.83333333333331" height="15.666666666666666" transform="scale(1,1) translate(0,0)"><text width="152.83333333333331" height="15.624999046325684" transform="scale(1,1) translate(0,0.02083381017049124)" xml:space="preserve"><tspan xml:space="preserve" text-rendering="optimizeSpeed" font-size="13.88888888888889" font-weight="normal" font-style="normal" text-decoration="none" fill="#333333" opacity="1" x="0.017" text-anchor="start" y="12.5" textLength="152.79946899414062" style="font-family: Arial, Helvetica Neue, Helvetica, sans-serif;">Requisitos mal elicitados</tspan></text></g></g><g width="138.167" height="15.667" transform="scale(1,1) translate(507.417,456.167)"><g stroke="#545454" stroke-opacity="1" stroke-width="0" stroke-dasharray="none" width="138.167" height="15.667" transform="scale(1,1) translate(0,0)" fill="none"><rect width="138.167" height="15.667"/></g><g width="138.16666666666666" height="15.666666666666666" transform="scale(1,1) translate(0,0)"><text width="138.16666666666666" height="15.624999046325684" transform="scale(1,1) translate(0,0.02083381017049124)" xml:space="preserve"><tspan xml:space="preserve" text-rendering="optimizeSpeed" font-size="13.88888888888889" font-weight="normal" font-style="normal" text-decoration="none" fill="#333333" opacity="1" x="0.008" text-anchor="start" y="12.5" textLength="138.15103149414062" style="font-family: Arial, Helvetica Neue, Helvetica, sans-serif;">Não coletar feedbacks</tspan></text></g></g><g width="138.167" height="15.5" transform="scale(1,1) translate(210.333,486.5)"><g stroke="#545454" stroke-opacity="1" stroke-width="0" stroke-dasharray="none" width="138.167" height="15.5" transform="scale(1,1) translate(0,0)" fill="none"><rect width="138.167" height="15.5"/></g><g width="138.16666666666666" height="15.624999046325684" transform="scale(1,1) translate(0,0)"><text width="138.16666666666666" height="15.624999046325684" transform="scale(1,1) translate(0,0)" xml:space="preserve"><tspan xml:space="preserve" text-rendering="optimizeSpeed" font-size="13.88888888888889" font-weight="normal" font-style="normal" text-decoration="none" fill="#333333" opacity="1" x="0.008" text-anchor="start" y="12.5" textLength="138.15103149414062" style="font-family: Arial, Helvetica Neue, Helvetica, sans-serif;">Não medir usabilidade</tspan></text></g></g><g width="128.167" height="15.667" transform="scale(1,1) translate(446.917,516.667)"><g stroke="#545454" stroke-opacity="1" stroke-width="0" stroke-dasharray="none" width="128.167" height="15.667" transform="scale(1,1) translate(0,0)" fill="none"><rect width="128.167" height="15.667"/></g><g width="128.16666666666666" height="15.666666666666666" transform="scale(1,1) translate(0,0)"><text width="128.16666666666666" height="15.624999046325684" transform="scale(1,1) translate(0,0.02083381017049124)" xml:space="preserve"><tspan xml:space="preserve" text-rendering="optimizeSpeed" font-size="13.88888888888889" font-weight="normal" font-style="normal" text-decoration="none" fill="#333333" opacity="1" x="0.021" text-anchor="start" y="12.5" textLength="128.125" style="font-family: Arial, Helvetica Neue, Helvetica, sans-serif;">Não medir qualidade</tspan></text></g></g><g width="120.333" height="15.667" transform="scale(1,1) translate(1912,366.5)"><g stroke="#545454" stroke-opacity="1" stroke-width="0" stroke-dasharray="none" width="120.333" height="15.667" transform="scale(1,1) translate(0,0)" fill="none"><rect width="120.333" height="15.667"/></g><g width="120.41014862060547" height="15.666666666666666" transform="scale(1,1) translate(0,0)"><text width="120.41014862060547" height="15.624999046325684" transform="scale(1,1) translate(0,0.02083381017049124)" xml:space="preserve"><tspan xml:space="preserve" text-rendering="optimizeSpeed" font-size="13.88888888888889" font-weight="normal" font-style="normal" text-decoration="none" fill="#333333" opacity="1" x="0" text-anchor="start" y="12.5" textLength="120.41014862060547" style="font-family: Arial, Helvetica Neue, Helvetica, sans-serif;">Falta de divulgação</tspan></text></g></g><g width="321" height="15.667" transform="scale(1,1) translate(1912,456.167)"><g stroke="#545454" stroke-opacity="1" stroke-width="0" stroke-dasharray="none" width="321" height="15.667" transform="scale(1,1) translate(0,0)" fill="none"><rect width="321" height="15.667"/></g><g width="321.02862548828125" height="15.666666666666666" transform="scale(1,1) translate(0,0)"><text width="321.02862548828125" height="15.624999046325684" transform="scale(1,1) translate(0,0.02083381017049124)" xml:space="preserve"><tspan xml:space="preserve" text-rendering="optimizeSpeed" font-size="13.88888888888889" font-weight="normal" font-style="normal" text-decoration="none" fill="#333333" opacity="1" x="0" text-anchor="start" y="12.5" textLength="321.02862548828125" style="font-family: Arial, Helvetica Neue, Helvetica, sans-serif;">Desinteresse nesse tipo de serviço de forma remota</tspan></text></g></g><g width="170.5" height="15.5" transform="scale(1,1) translate(1050.167,577.167)"><g stroke="#545454" stroke-opacity="1" stroke-width="0" stroke-dasharray="none" width="170.5" height="15.5" transform="scale(1,1) translate(0,0)" fill="none"><rect width="170.5" height="15.5"/></g><g width="170.5403594970703" height="15.624999046325684" transform="scale(1,1) translate(0,0)"><text width="170.5403594970703" height="15.624999046325684" transform="scale(1,1) translate(0,0)" xml:space="preserve"><tspan xml:space="preserve" text-rendering="optimizeSpeed" font-size="13.88888888888889" font-weight="normal" font-style="normal" text-decoration="none" fill="#333333" opacity="1" x="0" text-anchor="start" y="12.5" textLength="170.5403594970703" style="font-family: Arial, Helvetica Neue, Helvetica, sans-serif;">Não se importar com saúde</tspan></text></g></g><g width="207.5" height="15.667" transform="scale(1,1) translate(683.75,607.333)"><g stroke="#545454" stroke-opacity="1" stroke-width="0" stroke-dasharray="none" width="207.5" height="15.667" transform="scale(1,1) translate(0,0)" fill="none"><rect width="207.5" height="15.667"/></g><g width="207.56834411621094" height="15.666666666666666" transform="scale(1,1) translate(0,0)"><text width="207.56834411621094" height="15.624999046325684" transform="scale(1,1) translate(0,0.02083381017049124)" xml:space="preserve"><tspan xml:space="preserve" text-rendering="optimizeSpeed" font-size="13.88888888888889" font-weight="normal" font-style="normal" text-decoration="none" fill="#333333" opacity="1" x="0" text-anchor="start" y="12.5" textLength="207.56834411621094" style="font-family: Arial, Helvetica Neue, Helvetica, sans-serif;">Não se importar com alimentação</tspan></text></g></g><g width="247" height="15.667" transform="scale(1,1) translate(765.25,336.25)"><g stroke="#545454" stroke-opacity="1" stroke-width="0" stroke-dasharray="none" width="247" height="15.667" transform="scale(1,1) translate(0,0)" fill="none"><rect width="247" height="15.667"/></g><g width="247" height="15.666666666666666" transform="scale(1,1) translate(0,0)"><text width="247" height="15.624999046325684" transform="scale(1,1) translate(0,0.02083381017049124)" xml:space="preserve"><tspan xml:space="preserve" text-rendering="optimizeSpeed" font-size="13.88888888888889" font-weight="normal" font-style="normal" text-decoration="none" fill="#333333" opacity="1" x="0.022" text-anchor="start" y="12.5" textLength="246.9563751220703" style="font-family: Arial, Helvetica Neue, Helvetica, sans-serif;">Requisitos não-funcionais mal elicitados</tspan></text></g></g><g width="174.5" height="15.667" transform="scale(1,1) translate(1171.167,366.5)"><g stroke="#545454" stroke-opacity="1" stroke-width="0" stroke-dasharray="none" width="174.5" height="15.667" transform="scale(1,1) translate(0,0)" fill="none"><rect width="174.5" height="15.667"/></g><g width="174.5" height="15.666666666666666" transform="scale(1,1) translate(0,0)"><text width="174.5" height="15.624999046325684" transform="scale(1,1) translate(0,0.02083381017049124)" xml:space="preserve"><tspan xml:space="preserve" text-rendering="optimizeSpeed" font-size="13.88888888888889" font-weight="normal" font-style="normal" text-decoration="none" fill="#333333" opacity="1" x="0.035" text-anchor="start" y="12.5" textLength="174.43032836914062" style="font-family: Arial, Helvetica Neue, Helvetica, sans-serif;">Questionários não utilizados</tspan></text></g></g><g width="102" height="15.667" transform="scale(1,1) translate(276.75,366.5)"><g stroke="#545454" stroke-opacity="1" stroke-width="0" stroke-dasharray="none" width="102" height="15.667" transform="scale(1,1) translate(0,0)" fill="none"><rect width="102" height="15.667"/></g><g width="102" height="15.666666666666666" transform="scale(1,1) translate(0,0)"><text width="102" height="15.624999046325684" transform="scale(1,1) translate(0,0.02083381017049124)" xml:space="preserve"><tspan xml:space="preserve" text-rendering="optimizeSpeed" font-size="13.88888888888889" font-weight="normal" font-style="normal" text-decoration="none" fill="#333333" opacity="1" x="0.064" text-anchor="start" y="12.5" textLength="101.87174224853516" style="font-family: Arial, Helvetica Neue, Helvetica, sans-serif;">Não roda mobile</tspan></text></g></g><g width="138" height="15.667" transform="scale(1,1) translate(150,546.917)"><g stroke="#545454" stroke-opacity="1" stroke-width="0" stroke-dasharray="none" width="138" height="15.667" transform="scale(1,1) translate(0,0)" fill="none"><rect width="138" height="15.667"/></g><g width="138.15103149414062" height="15.666666666666666" transform="scale(1,1) translate(0,0)"><text width="138.15103149414062" height="15.624999046325684" transform="scale(1,1) translate(0,0.02083381017049124)" xml:space="preserve"><tspan xml:space="preserve" text-rendering="optimizeSpeed" font-size="13.88888888888889" font-weight="normal" font-style="normal" text-decoration="none" fill="#333333" opacity="1" x="0" text-anchor="start" y="12.5" textLength="138.15103149414062" style="font-family: Arial, Helvetica Neue, Helvetica, sans-serif;">Não obter público alvo</tspan></text></g></g><g width="254" height="15.5" transform="scale(1,1) translate(1499.083,486.5)"><g stroke="#545454" stroke-opacity="1" stroke-width="0" stroke-dasharray="none" width="254" height="15.5" transform="scale(1,1) translate(0,0)" fill="none"><rect width="254" height="15.5"/></g><g width="254" height="15.624999046325684" transform="scale(1,1) translate(0,0)"><text width="254" height="15.624999046325684" transform="scale(1,1) translate(0,0)" xml:space="preserve"><tspan xml:space="preserve" text-rendering="optimizeSpeed" font-size="13.88888888888889" font-weight="normal" font-style="normal" text-decoration="none" fill="#333333" opacity="1" x="0.031" text-anchor="start" y="12.5" textLength="253.9387969970703" style="font-family: Arial, Helvetica Neue, Helvetica, sans-serif;">Não considera o contexto do público alvo</tspan></text></g></g></g></svg>