<?xml version="1.0" standalone="no"?><!DOCTYPE svg PUBLIC "-//W3C//DTD SVG 1.1//EN" "http://www.w3.org/Graphics/SVG/1.1/DTD/svg11.dtd"><svg xmlns="http://www.w3.org/2000/svg" version="1.1" width="2196" height="619" xmlns:xlink="http://www.w3.org/1999/xlink" xlink="http://www.w3.org/1999/xlink" style="position:relative;overflow:hidden;" viewBox="-12 50.833 2196 619"><defs/><g><g width="1541.167" height="0" transform="scale(1,1) translate(480.667,360.5)"><g fill="#545454" stroke="#545454" stroke-opacity="1" transform="scale(1,1) translate(0,0)"><path fill="none" stroke-width="1" stroke-dasharray="none" d="M0,0 L1178.833,0 M0,0 L0,0 M1535.167,0 L1178.833,0 M0,0 L0,0 M0,0 L0,0 M619.5,0 L619.5,0 M619.5,0 L619.5,0 M1178.833,0 L1178.833,0 M1178.833,0 L1178.833,0"/><g><g stroke-dasharray="none"><path d="M1535.167,-3L1541.167,0L1535.167,3z" stroke="none" fill-opacity="1"/></g></g></g></g><g width="149.667" height="50.167" transform="scale(1,1) translate(2021.833,335.5)"><g stroke="#CEE7E9" stroke-opacity="1" stroke-width="1" stroke-dasharray="none" width="149.667" height="50.167" transform="scale(1,1) translate(0,0)" fill="#CEE7E9" fill-opacity="1"><rect width="149.667" height="50.167"/></g><g width="144.66666666666666" height="45.166666666666664" transform="scale(1,1) translate(2.5,2.5)"><text width="144.66666666666666" height="31.249998092651367" transform="scale(1,1) translate(0,6.9583342870076486)" xml:space="preserve"><tspan xml:space="preserve" text-rendering="optimizeSpeed" font-size="13.88888888888889" font-weight="normal" font-style="normal" text-decoration="none" fill="#333333" opacity="1" x="7.514" text-anchor="start" y="12.5" textLength="125.78124237060547" style="font-family: Arial, Helvetica Neue, Helvetica, sans-serif;">Atraso nas Entregas</tspan><tspan xml:space="preserve" text-rendering="optimizeSpeed" font-size="13.88888888888889" font-weight="normal" font-style="normal" text-decoration="none" fill="#333333" opacity="1" x="40.676" text-anchor="start" y="28.125" textLength="63.31379699707031" style="font-family: Arial, Helvetica Neue, Helvetica, sans-serif;">do Projeto</tspan></text></g></g><g width="247" height="222" transform="scale(1,1) translate(878.167,138.5)"><g fill="#545454" stroke="#545454" stroke-opacity="1" transform="scale(1,1) translate(0,0)"><path fill="none" stroke-width="1" stroke-dasharray="none" d="M131.333,131.333 L197,197 M131.333,131.333 L0,0 M197,197 L222,222 M137.333,131.333 L181.333,131.333 M158.167,164.167 L114.167,164.167 M203,197 L247,197"/><g><g stroke-dasharray="none"><path d="M137.333,134.333L131.333,131.333L137.333,128.333z" stroke="none" fill-opacity="1"/></g><g stroke-dasharray="none"><path d="M158.167,161.167L164.167,164.167L158.167,167.167z" stroke="none" fill-opacity="1"/></g><g stroke-dasharray="none"><path d="M203,200L197,197L203,194z" stroke="none" fill-opacity="1"/></g></g></g></g><g width="150.833" height="75.167" transform="scale(1,1) translate(802.75,63.333)"><g stroke="#CEE7E9" stroke-opacity="1" stroke-width="1" stroke-dasharray="none" width="150.833" height="75.167" transform="scale(1,1) translate(0,0)" fill="#CEE7E9" fill-opacity="1"><rect width="150.833" height="75.167"/></g><g width="145.83333333333331" height="70.16666666666666" transform="scale(1,1) translate(2.5,2.5)"><text width="145.83333333333331" height="15.624999046325684" transform="scale(1,1) translate(0,27.270833810170487)" xml:space="preserve"><tspan xml:space="preserve" text-rendering="optimizeSpeed" font-size="13.88888888888889" font-weight="normal" font-style="normal" text-decoration="none" fill="#333333" opacity="1" x="46.289" text-anchor="start" y="12.5" textLength="53.25520706176758" style="font-family: Arial, Helvetica Neue, Helvetica, sans-serif;">Pessoas</tspan></text></g></g><g width="247" height="222" transform="scale(1,1) translate(1437.5,138.5)"><g fill="#545454" stroke="#545454" stroke-opacity="1" transform="scale(1,1) translate(0,0)"><path fill="none" stroke-width="1" stroke-dasharray="none" d="M131.333,131.333 L197,197 M131.333,131.333 L0,0 M197,197 L222,222 M137.333,131.333 L181.333,131.333 M158.167,164.167 L114.167,164.167 M203,197 L247,197"/><g><g stroke-dasharray="none"><path d="M137.333,134.333L131.333,131.333L137.333,128.333z" stroke="none" fill-opacity="1"/></g><g stroke-dasharray="none"><path d="M158.167,161.167L164.167,164.167L158.167,167.167z" stroke="none" fill-opacity="1"/></g><g stroke-dasharray="none"><path d="M203,200L197,197L203,194z" stroke="none" fill-opacity="1"/></g></g></g></g><g width="149.5" height="74.5" transform="scale(1,1) translate(1362.75,64)"><g stroke="#CEE7E9" stroke-opacity="1" stroke-width="1" stroke-dasharray="none" width="149.5" height="74.5" transform="scale(1,1) translate(0,0)" fill="#CEE7E9" fill-opacity="1"><rect width="149.5" height="74.5"/></g><g width="144.5" height="69.5" transform="scale(1,1) translate(2.5,2.5)"><text width="144.5" height="15.624999046325684" transform="scale(1,1) translate(0,26.937500476837158)" xml:space="preserve"><tspan xml:space="preserve" text-rendering="optimizeSpeed" font-size="13.88888888888889" font-weight="normal" font-style="normal" text-decoration="none" fill="#333333" opacity="1" x="42.921" text-anchor="start" y="12.5" textLength="58.658851623535156" style="font-family: Arial, Helvetica Neue, Helvetica, sans-serif;">Ambiente</tspan></text></g></g><g width="247" height="222" transform="scale(1,1) translate(1437.5,360.5)"><g fill="#545454" stroke="#545454" stroke-opacity="1" transform="scale(1,1) translate(0,0)"><path fill="none" stroke-width="1" stroke-dasharray="none" d="M197,25 L131.333,90.667 M197,25 L222,0 M131.333,90.667 L0,222 M203,25 L247,25 M158.167,57.833 L114.167,57.833 M137.333,90.667 L181.333,90.667"/><g><g stroke-dasharray="none"><path d="M203,28L197,25L203,22z" stroke="none" fill-opacity="1"/></g><g stroke-dasharray="none"><path d="M158.167,54.833L164.167,57.833L158.167,60.833z" stroke="none" fill-opacity="1"/></g><g stroke-dasharray="none"><path d="M137.333,93.667L131.333,90.667L137.333,87.667z" stroke="none" fill-opacity="1"/></g></g></g></g><g width="149.5" height="74.5" transform="scale(1,1) translate(1362.75,582.5)"><g stroke="#CEE7E9" stroke-opacity="1" stroke-width="1" stroke-dasharray="none" width="149.5" height="74.5" transform="scale(1,1) translate(0,0)" fill="#CEE7E9" fill-opacity="1"><rect width="149.5" height="74.5"/></g><g width="144.5" height="69.5" transform="scale(1,1) translate(2.5,2.5)"><text width="144.5" height="15.624999046325684" transform="scale(1,1) translate(0,26.937500476837158)" xml:space="preserve"><tspan xml:space="preserve" text-rendering="optimizeSpeed" font-size="13.88888888888889" font-weight="normal" font-style="normal" text-decoration="none" fill="#333333" opacity="1" x="49.089" text-anchor="start" y="12.5" textLength="46.32161331176758" style="font-family: Arial, Helvetica Neue, Helvetica, sans-serif;">Método</tspan></text></g></g><g width="264.167" height="222" transform="scale(1,1) translate(241.5,360.5)"><g fill="#545454" stroke="#545454" stroke-opacity="1" transform="scale(1,1) translate(0,0)"><path fill="none" stroke-width="1" stroke-dasharray="none" d="M214.167,25 L50,189.167 M214.167,25 L239.167,0 M50,189.167 L17.167,222 M220.167,25 L264.167,25 M175.333,57.833 L131.333,57.833 M154.5,90.667 L198.5,90.667 M109.667,123.5 L65.667,123.5 M88.833,156.333 L132.833,156.333 M44,189.167 L0,189.167"/><g><g stroke-dasharray="none"><path d="M220.167,28L214.167,25L220.167,22z" stroke="none" fill-opacity="1"/></g><g stroke-dasharray="none"><path d="M175.333,54.833L181.333,57.833L175.333,60.833z" stroke="none" fill-opacity="1"/></g><g stroke-dasharray="none"><path d="M154.5,93.667L148.5,90.667L154.5,87.667z" stroke="none" fill-opacity="1"/></g><g stroke-dasharray="none"><path d="M109.667,120.5L115.667,123.5L109.667,126.5z" stroke="none" fill-opacity="1"/></g><g stroke-dasharray="none"><path d="M88.833,159.333L82.833,156.333L88.833,153.333z" stroke="none" fill-opacity="1"/></g><g stroke-dasharray="none"><path d="M44,186.167L50,189.167L44,192.167z" stroke="none" fill-opacity="1"/></g></g></g></g><g width="149.667" height="74.5" transform="scale(1,1) translate(183.833,582.5)"><g stroke="#CEE7E9" stroke-opacity="1" stroke-width="1" stroke-dasharray="none" width="149.667" height="74.5" transform="scale(1,1) translate(0,0)" fill="#CEE7E9" fill-opacity="1"><rect width="149.667" height="74.5"/></g><g width="144.66666666666666" height="69.5" transform="scale(1,1) translate(2.5,2.5)"><text width="144.66666666666666" height="15.624999046325684" transform="scale(1,1) translate(0,26.937500476837158)" xml:space="preserve"><tspan xml:space="preserve" text-rendering="optimizeSpeed" font-size="13.88888888888889" font-weight="normal" font-style="normal" text-decoration="none" fill="#333333" opacity="1" x="46.088" text-anchor="start" y="12.5" textLength="52.490230560302734" style="font-family: Arial, Helvetica Neue, Helvetica, sans-serif;">Medição</tspan></text></g></g><g width="222" height="222" transform="scale(1,1) translate(258.667,138.5)"><g fill="#545454" stroke="#545454" stroke-opacity="1" transform="scale(1,1) translate(0,0)"><path fill="none" stroke-width="1" stroke-dasharray="none" d="M164.167,164.167 L197,197 M164.167,164.167 L0,0 M197,197 L222,222 M170.167,164.167 L214.167,164.167 M191,197 L147,197"/><g><g stroke-dasharray="none"><path d="M170.167,167.167L164.167,164.167L170.167,161.167z" stroke="none" fill-opacity="1"/></g><g stroke-dasharray="none"><path d="M191,194L197,197L191,200z" stroke="none" fill-opacity="1"/></g></g></g></g><g width="150.167" height="74.833" transform="scale(1,1) translate(183.583,63.667)"><g stroke="#CEE7E9" stroke-opacity="1" stroke-width="1" stroke-dasharray="none" width="150.167" height="74.833" transform="scale(1,1) translate(0,0)" fill="#CEE7E9" fill-opacity="1"><rect width="150.167" height="74.833"/></g><g width="145.16666666666666" height="69.83333333333333" transform="scale(1,1) translate(2.5,2.5)"><text width="145.16666666666666" height="15.624999046325684" transform="scale(1,1) translate(0,27.104167143503823)" xml:space="preserve"><tspan xml:space="preserve" text-rendering="optimizeSpeed" font-size="13.88888888888889" font-weight="normal" font-style="normal" text-decoration="none" fill="#333333" opacity="1" x="45.948" text-anchor="start" y="12.5" textLength="53.271480560302734" style="font-family: Arial, Helvetica Neue, Helvetica, sans-serif;">Máquina</tspan></text></g></g><g width="220.667" height="15.5" transform="scale(1,1) translate(1618.833,262.083)"><g stroke="#545454" stroke-opacity="1" stroke-width="0" stroke-dasharray="none" width="220.667" height="15.5" transform="scale(1,1) translate(0,0)" fill="none"><rect width="220.667" height="15.5"/></g><g width="220.71939086914062" height="15.624999046325684" transform="scale(1,1) translate(0,0)"><text width="220.71939086914062" height="15.624999046325684" transform="scale(1,1) translate(0,0)" xml:space="preserve"><tspan xml:space="preserve" text-rendering="optimizeSpeed" font-size="13.88888888888889" font-weight="normal" font-style="normal" text-decoration="none" fill="#333333" opacity="1" x="0" text-anchor="start" y="12.5" textLength="220.71939086914062" style="font-family: Arial, Helvetica Neue, Helvetica, sans-serif;">Cronogramas corridos da faculdade</tspan></text></g></g><g width="116" height="15.667" transform="scale(1,1) translate(1435.667,294.833)"><g stroke="#545454" stroke-opacity="1" stroke-width="0" stroke-dasharray="none" width="116" height="15.667" transform="scale(1,1) translate(0,0)" fill="none"><rect width="116" height="15.667"/></g><g width="116.03189849853516" height="15.666666666666666" transform="scale(1,1) translate(0,0)"><text width="116.03189849853516" height="15.624999046325684" transform="scale(1,1) translate(0,0.02083381017049124)" xml:space="preserve"><tspan xml:space="preserve" text-rendering="optimizeSpeed" font-size="13.88888888888889" font-weight="normal" font-style="normal" text-decoration="none" fill="#333333" opacity="1" x="0" text-anchor="start" y="12.5" textLength="116.03189849853516" style="font-family: Arial, Helvetica Neue, Helvetica, sans-serif;">Trabalho e Estágio</tspan></text></g></g><g width="135" height="15.5" transform="scale(1,1) translate(1059.5,262.083)"><g stroke="#545454" stroke-opacity="1" stroke-width="0" stroke-dasharray="none" width="135" height="15.5" transform="scale(1,1) translate(0,0)" fill="none"><rect width="135" height="15.5"/></g><g width="135.05859375" height="15.624999046325684" transform="scale(1,1) translate(0,0)"><text width="135.05859375" height="15.624999046325684" transform="scale(1,1) translate(0,0)" xml:space="preserve"><tspan xml:space="preserve" text-rendering="optimizeSpeed" font-size="13.88888888888889" font-weight="normal" font-style="normal" text-decoration="none" fill="#333333" opacity="1" x="0" text-anchor="start" y="12.5" textLength="135.05859375" style="font-family: Arial, Helvetica Neue, Helvetica, sans-serif;">DIficuldades pessoais</tspan></text></g></g><g width="126.667" height="15.667" transform="scale(1,1) translate(865.667,294.833)"><g stroke="#545454" stroke-opacity="1" stroke-width="0" stroke-dasharray="none" width="126.667" height="15.667" transform="scale(1,1) translate(0,0)" fill="none"><rect width="126.667" height="15.667"/></g><g width="126.66666666666666" height="15.666666666666666" transform="scale(1,1) translate(0,0)"><text width="126.66666666666666" height="15.624999046325684" transform="scale(1,1) translate(0,0.02083381017049124)" xml:space="preserve"><tspan xml:space="preserve" text-rendering="optimizeSpeed" font-size="13.88888888888889" font-weight="normal" font-style="normal" text-decoration="none" fill="#333333" opacity="1" x="0.052" text-anchor="start" y="12.5" textLength="126.56249237060547" style="font-family: Arial, Helvetica Neue, Helvetica, sans-serif;">Estresse psicológico</tspan></text></g></g><g width="177.5" height="15.667" transform="scale(1,1) translate(1125.167,327.667)"><g stroke="#545454" stroke-opacity="1" stroke-width="0" stroke-dasharray="none" width="177.5" height="15.667" transform="scale(1,1) translate(0,0)" fill="none"><rect width="177.5" height="15.667"/></g><g width="177.5" height="15.666666666666666" transform="scale(1,1) translate(0,0)"><text width="177.5" height="15.624999046325684" transform="scale(1,1) translate(0,0.02083381017049124)" xml:space="preserve"><tspan xml:space="preserve" text-rendering="optimizeSpeed" font-size="13.88888888888889" font-weight="normal" font-style="normal" text-decoration="none" fill="#333333" opacity="1" x="0.005" text-anchor="start" y="12.5" textLength="177.490234375" style="font-family: Arial, Helvetica Neue, Helvetica, sans-serif;">Dificuldade em se comunicar</tspan></text></g></g><g width="323.333" height="15.667" transform="scale(1,1) translate(1684.5,327.667)"><g stroke="#545454" stroke-opacity="1" stroke-width="0" stroke-dasharray="none" width="323.333" height="15.667" transform="scale(1,1) translate(0,0)" fill="none"><rect width="323.333" height="15.667"/></g><g width="323.388671875" height="15.666666666666666" transform="scale(1,1) translate(0,0)"><text width="323.388671875" height="15.624999046325684" transform="scale(1,1) translate(0,0.02083381017049124)" xml:space="preserve"><tspan xml:space="preserve" text-rendering="optimizeSpeed" font-size="13.88888888888889" font-weight="normal" font-style="normal" text-decoration="none" fill="#333333" opacity="1" x="0" text-anchor="start" y="12.5" textLength="323.388671875" style="font-family: Arial, Helvetica Neue, Helvetica, sans-serif;">Complicações da Pandemia (que ainda não acabou)</tspan></text></g></g><g width="149.833" height="15.667" transform="scale(1,1) translate(472.833,294.833)"><g stroke="#545454" stroke-opacity="1" stroke-width="0" stroke-dasharray="none" width="149.833" height="15.667" transform="scale(1,1) translate(0,0)" fill="none"><rect width="149.833" height="15.667"/></g><g width="149.83333333333331" height="15.666666666666666" transform="scale(1,1) translate(0,0)"><text width="149.83333333333331" height="15.624999046325684" transform="scale(1,1) translate(0,0.02083381017049124)" xml:space="preserve"><tspan xml:space="preserve" text-rendering="optimizeSpeed" font-size="13.88888888888889" font-weight="normal" font-style="normal" text-decoration="none" fill="#333333" opacity="1" x="0.063" text-anchor="start" y="12.5" textLength="149.70703125" style="font-family: Arial, Helvetica Neue, Helvetica, sans-serif;">Problemas de Hardware</tspan></text></g></g><g width="247" height="222" transform="scale(1,1) translate(878.167,360.5)"><g fill="#545454" stroke="#545454" stroke-opacity="1" transform="scale(1,1) translate(0,0)"><path fill="none" stroke-width="1" stroke-dasharray="none" d="M197,25 L164.167,57.833 M197,25 L222,0 M164.167,57.833 L0,222 M203,25 L247,25 M158.167,57.833 L114.167,57.833"/><g><g stroke-dasharray="none"><path d="M203,28L197,25L203,22z" stroke="none" fill-opacity="1"/></g><g stroke-dasharray="none"><path d="M158.167,54.833L164.167,57.833L158.167,60.833z" stroke="none" fill-opacity="1"/></g></g></g></g><g width="150.167" height="74.833" transform="scale(1,1) translate(803.083,582.5)"><g stroke="#CEE7E9" stroke-opacity="1" stroke-width="1" stroke-dasharray="none" width="150.167" height="74.833" transform="scale(1,1) translate(0,0)" fill="#CEE7E9" fill-opacity="1"><rect width="150.167" height="74.833"/></g><g width="145.16666666666666" height="69.83333333333333" transform="scale(1,1) translate(2.5,2.5)"><text width="145.16666666666666" height="15.624999046325684" transform="scale(1,1) translate(0,27.104167143503823)" xml:space="preserve"><tspan xml:space="preserve" text-rendering="optimizeSpeed" font-size="13.88888888888889" font-weight="normal" font-style="normal" text-decoration="none" fill="#333333" opacity="1" x="47.893" text-anchor="start" y="12.5" textLength="49.381507873535156" style="font-family: Arial, Helvetica Neue, Helvetica, sans-serif;">Material</tspan></text></g></g><g width="227.667" height="15.667" transform="scale(1,1) translate(1125.167,377.667)"><g stroke="#545454" stroke-opacity="1" stroke-width="0" stroke-dasharray="none" width="227.667" height="15.667" transform="scale(1,1) translate(0,0)" fill="none"><rect width="227.667" height="15.667"/></g><g width="227.6692657470703" height="15.666666666666666" transform="scale(1,1) translate(0,0)"><text width="227.6692657470703" height="15.624999046325684" transform="scale(1,1) translate(0,0.02083381017049124)" xml:space="preserve"><tspan xml:space="preserve" text-rendering="optimizeSpeed" font-size="13.88888888888889" font-weight="normal" font-style="normal" text-decoration="none" fill="#333333" opacity="1" x="0" text-anchor="start" y="12.5" textLength="227.6692657470703" style="font-family: Arial, Helvetica Neue, Helvetica, sans-serif;">Problemas de instalação de software</tspan></text></g></g><g width="169" height="15.667" transform="scale(1,1) translate(823.333,410.5)"><g stroke="#545454" stroke-opacity="1" stroke-width="0" stroke-dasharray="none" width="169" height="15.667" transform="scale(1,1) translate(0,0)" fill="none"><rect width="169" height="15.667"/></g><g width="169.0266876220703" height="15.666666666666666" transform="scale(1,1) translate(0,0)"><text width="169.0266876220703" height="15.624999046325684" transform="scale(1,1) translate(0,0.02083381017049124)" xml:space="preserve"><tspan xml:space="preserve" text-rendering="optimizeSpeed" font-size="13.88888888888889" font-weight="normal" font-style="normal" text-decoration="none" fill="#333333" opacity="1" x="0" text-anchor="start" y="12.5" textLength="169.0266876220703" style="font-family: Arial, Helvetica Neue, Helvetica, sans-serif;">Problemas de configuração</tspan></text></g></g><g width="167.333" height="15.667" transform="scale(1,1) translate(505.667,377.667)"><g stroke="#545454" stroke-opacity="1" stroke-width="0" stroke-dasharray="none" width="167.333" height="15.667" transform="scale(1,1) translate(0,0)" fill="none"><rect width="167.333" height="15.667"/></g><g width="167.33333333333331" height="15.666666666666666" transform="scale(1,1) translate(0,0)"><text width="167.33333333333331" height="15.624999046325684" transform="scale(1,1) translate(0,0.02083381017049124)" xml:space="preserve"><tspan xml:space="preserve" text-rendering="optimizeSpeed" font-size="13.88888888888889" font-weight="normal" font-style="normal" text-decoration="none" fill="#333333" opacity="1" x="0.057" text-anchor="start" y="12.5" textLength="167.2200469970703" style="font-family: Arial, Helvetica Neue, Helvetica, sans-serif;">Não acompanhar o velocity</tspan></text></g></g><g width="219.833" height="15.667" transform="scale(1,1) translate(153,410.5)"><g stroke="#545454" stroke-opacity="1" stroke-width="0" stroke-dasharray="none" width="219.833" height="15.667" transform="scale(1,1) translate(0,0)" fill="none"><rect width="219.833" height="15.667"/></g><g width="219.93814086914062" height="15.666666666666666" transform="scale(1,1) translate(0,0)"><text width="219.93814086914062" height="15.624999046325684" transform="scale(1,1) translate(0,0.02083381017049124)" xml:space="preserve"><tspan xml:space="preserve" text-rendering="optimizeSpeed" font-size="13.88888888888889" font-weight="normal" font-style="normal" text-decoration="none" fill="#333333" opacity="1" x="0" text-anchor="start" y="12.5" textLength="219.93814086914062" style="font-family: Arial, Helvetica Neue, Helvetica, sans-serif;">Não acompanhar rotina de commits</tspan></text></g></g><g width="272.5" height="15.667" transform="scale(1,1) translate(440,443.333)"><g stroke="#545454" stroke-opacity="1" stroke-width="0" stroke-dasharray="none" width="272.5" height="15.667" transform="scale(1,1) translate(0,0)" fill="none"><rect width="272.5" height="15.667"/></g><g width="272.5" height="15.666666666666666" transform="scale(1,1) translate(0,0)"><text width="272.5" height="15.624999046325684" transform="scale(1,1) translate(0,0.02083381017049124)" xml:space="preserve"><tspan xml:space="preserve" text-rendering="optimizeSpeed" font-size="13.88888888888889" font-weight="normal" font-style="normal" text-decoration="none" fill="#333333" opacity="1" x="0.06" text-anchor="start" y="12.5" textLength="272.3795471191406" style="font-family: Arial, Helvetica Neue, Helvetica, sans-serif;">Não priorizar/ Priorizar erroneamente issues</tspan></text></g></g><g width="152.833" height="15.667" transform="scale(1,1) translate(1684.5,377.667)"><g stroke="#545454" stroke-opacity="1" stroke-width="0" stroke-dasharray="none" width="152.833" height="15.667" transform="scale(1,1) translate(0,0)" fill="none"><rect width="152.833" height="15.667"/></g><g width="152.83333333333331" height="15.666666666666666" transform="scale(1,1) translate(0,0)"><text width="152.83333333333331" height="15.624999046325684" transform="scale(1,1) translate(0,0.02083381017049124)" xml:space="preserve"><tspan xml:space="preserve" text-rendering="optimizeSpeed" font-size="13.88888888888889" font-weight="normal" font-style="normal" text-decoration="none" fill="#333333" opacity="1" x="0.009" text-anchor="start" y="12.5" textLength="152.8157501220703" style="font-family: Arial, Helvetica Neue, Helvetica, sans-serif;">Não seguir filosofia Lean</tspan></text></g></g><g width="156.667" height="15.667" transform="scale(1,1) translate(1395,410.5)"><g stroke="#545454" stroke-opacity="1" stroke-width="0" stroke-dasharray="none" width="156.667" height="15.667" transform="scale(1,1) translate(0,0)" fill="none"><rect width="156.667" height="15.667"/></g><g width="156.66666666666666" height="15.666666666666666" transform="scale(1,1) translate(0,0)"><text width="156.66666666666666" height="15.624999046325684" transform="scale(1,1) translate(0,0.02083381017049124)" xml:space="preserve"><tspan xml:space="preserve" text-rendering="optimizeSpeed" font-size="13.88888888888889" font-weight="normal" font-style="normal" text-decoration="none" fill="#333333" opacity="1" x="0.005" text-anchor="start" y="12.5" textLength="156.65689086914062" style="font-family: Arial, Helvetica Neue, Helvetica, sans-serif;">Não seguir práticas ágeis</tspan></text></g></g><g width="209.833" height="15.667" transform="scale(1,1) translate(1618.833,443.333)"><g stroke="#545454" stroke-opacity="1" stroke-width="0" stroke-dasharray="none" width="209.833" height="15.667" transform="scale(1,1) translate(0,0)" fill="none"><rect width="209.833" height="15.667"/></g><g width="209.91209411621094" height="15.666666666666666" transform="scale(1,1) translate(0,0)"><text width="209.91209411621094" height="15.624999046325684" transform="scale(1,1) translate(0,0.02083381017049124)" xml:space="preserve"><tspan xml:space="preserve" text-rendering="optimizeSpeed" font-size="13.88888888888889" font-weight="normal" font-style="normal" text-decoration="none" fill="#333333" opacity="1" x="0" text-anchor="start" y="12.5" textLength="209.91209411621094" style="font-family: Arial, Helvetica Neue, Helvetica, sans-serif;">Não seguir políticas do repositório</tspan></text></g></g><g width="150.5" height="15.667" transform="scale(1,1) translate(156.667,476.167)"><g stroke="#545454" stroke-opacity="1" stroke-width="0" stroke-dasharray="none" width="150.5" height="15.667" transform="scale(1,1) translate(0,0)" fill="none"><rect width="150.5" height="15.667"/></g><g width="150.5" height="15.666666666666666" transform="scale(1,1) translate(0,0)"><text width="150.5" height="15.624999046325684" transform="scale(1,1) translate(0,0.02083381017049124)" xml:space="preserve"><tspan xml:space="preserve" text-rendering="optimizeSpeed" font-size="13.88888888888889" font-weight="normal" font-style="normal" text-decoration="none" fill="#333333" opacity="1" x="0.006" text-anchor="start" y="12.5" textLength="150.48828125" style="font-family: Arial, Helvetica Neue, Helvetica, sans-serif;">Não passar por revisões</tspan></text></g></g><g width="151.333" height="15.667" transform="scale(1,1) translate(254.333,327.667)"><g stroke="#545454" stroke-opacity="1" stroke-width="0" stroke-dasharray="none" width="151.333" height="15.667" transform="scale(1,1) translate(0,0)" fill="none"><rect width="151.333" height="15.667"/></g><g width="151.33333333333331" height="15.666666666666666" transform="scale(1,1) translate(0,0)"><text width="151.33333333333331" height="15.624999046325684" transform="scale(1,1) translate(0,0.02083381017049124)" xml:space="preserve"><tspan xml:space="preserve" text-rendering="optimizeSpeed" font-size="13.88888888888889" font-weight="normal" font-style="normal" text-decoration="none" fill="#333333" opacity="1" x="0.024" text-anchor="start" y="12.5" textLength="151.28579711914062" style="font-family: Arial, Helvetica Neue, Helvetica, sans-serif;">Dificuldades de conexão</tspan></text></g></g><g width="277.167" height="15.667" transform="scale(1,1) translate(374.333,509)"><g stroke="#545454" stroke-opacity="1" stroke-width="0" stroke-dasharray="none" width="277.167" height="15.667" transform="scale(1,1) translate(0,0)" fill="none"><rect width="277.167" height="15.667"/></g><g width="277.16666666666663" height="15.666666666666666" transform="scale(1,1) translate(0,0)"><text width="277.16666666666663" height="15.624999046325684" transform="scale(1,1) translate(0,0.02083381017049124)" xml:space="preserve"><tspan xml:space="preserve" text-rendering="optimizeSpeed" font-size="13.88888888888889" font-weight="normal" font-style="normal" text-decoration="none" fill="#333333" opacity="1" x="0.05" text-anchor="start" y="12.5" textLength="277.0670471191406" style="font-family: Arial, Helvetica Neue, Helvetica, sans-serif;">Não acompanhar a complexidade das issues</tspan></text></g></g><g width="241.5" height="15.667" transform="scale(1,1) translate(0,541.833)"><g stroke="#545454" stroke-opacity="1" stroke-width="0" stroke-dasharray="none" width="241.5" height="15.667" transform="scale(1,1) translate(0,0)" fill="none"><rect width="241.5" height="15.667"/></g><g width="241.55271911621094" height="15.666666666666666" transform="scale(1,1) translate(0,0)"><text width="241.55271911621094" height="15.624999046325684" transform="scale(1,1) translate(0,0.02083381017049124)" xml:space="preserve"><tspan xml:space="preserve" text-rendering="optimizeSpeed" font-size="13.88888888888889" font-weight="normal" font-style="normal" text-decoration="none" fill="#333333" opacity="1" x="0" text-anchor="start" y="12.5" textLength="241.55271911621094" style="font-family: Arial, Helvetica Neue, Helvetica, sans-serif;">Não ajustar a complexidade das issues</tspan></text></g></g></g></svg>