<?xml version="1.0" standalone="no"?><!DOCTYPE svg PUBLIC "-//W3C//DTD SVG 1.1//EN" "http://www.w3.org/Graphics/SVG/1.1/DTD/svg11.dtd"><svg xmlns="http://www.w3.org/2000/svg" version="1.1" width="2317.333" height="633.667" xmlns:xlink="http://www.w3.org/1999/xlink" xlink="http://www.w3.org/1999/xlink" style="position:relative;overflow:hidden;" viewBox="100.5 102.333 2317.333 633.667"><defs/><g><g width="1684.167" height="0" transform="scale(1,1) translate(571.5,419.167)"><g fill="#545454" stroke="#545454" stroke-opacity="1" transform="scale(1,1) translate(0,0)"><path fill="none" stroke-width="1" stroke-dasharray="none" d="M0,0 L1339.167,0 M0,0 L0,0 M1678.167,0 L1339.167,0 M0,0 L0,0 M0,0 L0,0 M689.5,0 L689.5,0 M689.5,0 L689.5,0 M1339.167,0 L1339.167,0"/><g><g stroke-dasharray="none"><path d="M1678.167,-3L1684.167,0L1678.167,3z" stroke="none" fill-opacity="1"/></g></g></g></g><g width="248.75" height="229.25" transform="scale(1,1) translate(342.333,189.917)"><g fill="#545454" stroke="#545454" stroke-opacity="1" transform="scale(1,1) translate(0,0)"><path fill="none" stroke-width="1" stroke-dasharray="none" d="M122.833,122.833 L184.417,184.417 M122.833,122.833 L0,0 M184.417,184.417 L229.25,229.25 M128.833,122.833 L187.167,122.833 M147.667,153.667 L89.333,153.667 M190.417,184.417 L248.75,184.417"/><g><g stroke-dasharray="none"><path d="M128.833,125.833L122.833,122.833L128.833,119.833z" stroke="none" fill-opacity="1"/></g><g stroke-dasharray="none"><path d="M147.667,150.667L153.667,153.667L147.667,156.667z" stroke="none" fill-opacity="1"/></g><g stroke-dasharray="none"><path d="M190.417,187.417L184.417,184.417L190.417,181.417z" stroke="none" fill-opacity="1"/></g></g></g></g><g width="222.333" height="16.667" transform="scale(1,1) translate(591,366)"><g stroke="#000000" stroke-opacity="1" stroke-width="0" stroke-dasharray="none" width="222.333" height="16.667" transform="scale(1,1) translate(0,0)" fill="none"><rect width="222.333" height="16.667"/></g><g width="222.33333333333331" height="16.666666666666664" transform="scale(1,1) translate(0,0)"><text width="222.33333333333331" height="15.624999046325684" transform="scale(1,1) translate(0,0.5208338101704904)" xml:space="preserve"><tspan xml:space="preserve" text-rendering="optimizeSpeed" font-size="13.88888888888889" font-weight="normal" font-style="normal" text-decoration="none" fill="#333333" opacity="1" x="0" text-anchor="start" y="13.021" textLength="222.12725830078125" style="font-family: Arial, Helvetica Neue, Helvetica, sans-serif;">Praticidade para compartilhamentos</tspan></text></g></g><g width="186.833" height="16.833" transform="scale(1,1) translate(244.833,335.167)"><g stroke="#000000" stroke-opacity="1" stroke-width="0" stroke-dasharray="none" width="186.833" height="16.833" transform="scale(1,1) translate(0,0)" fill="none"><rect width="186.833" height="16.833"/></g><g width="186.83333333333331" height="16.833333333333332" transform="scale(1,1) translate(0,0)"><text width="186.83333333333331" height="15.624999046325684" transform="scale(1,1) translate(0,0.6041671435038243)" xml:space="preserve"><tspan xml:space="preserve" text-rendering="optimizeSpeed" font-size="13.88888888888889" font-weight="normal" font-style="normal" text-decoration="none" fill="#333333" opacity="1" x="0.167" text-anchor="start" y="13.021" textLength="186.6658477783203" style="font-family: Arial, Helvetica Neue, Helvetica, sans-serif;">Praticidade para comunicação</tspan></text></g></g><g width="234.667" height="16.5" transform="scale(1,1) translate(529.5,304.5)"><g stroke="#000000" stroke-opacity="1" stroke-width="0" stroke-dasharray="none" width="234.667" height="16.5" transform="scale(1,1) translate(0,0)" fill="none"><rect width="234.667" height="16.5"/></g><g width="234.66666666666666" height="16.5" transform="scale(1,1) translate(0,0)"><text width="234.66666666666666" height="15.624999046325684" transform="scale(1,1) translate(0,0.4375004768371582)" xml:space="preserve"><tspan xml:space="preserve" text-rendering="optimizeSpeed" font-size="13.88888888888889" font-weight="normal" font-style="normal" text-decoration="none" fill="#333333" opacity="1" x="0" text-anchor="start" y="13.021" textLength="234.49705505371094" style="font-family: Arial, Helvetica Neue, Helvetica, sans-serif;">Pandemia trouxe novas necessidades</tspan></text></g></g><g width="248.75" height="229.25" transform="scale(1,1) translate(1031.75,419.167)"><g fill="#545454" stroke="#545454" stroke-opacity="1" transform="scale(1,1) translate(0,0)"><path fill="none" stroke-width="1" stroke-dasharray="none" d="M184.417,44.833 L61.917,167.333 M184.417,44.833 L229.25,0 M61.917,167.333 L0,229.25 M190.417,44.833 L248.75,44.833 M147.667,75.583 L89.333,75.583 M128.917,106.333 L187.25,106.333 M86.167,137.083 L27.833,137.083 M67.917,167.333 L126.25,167.333"/><g><g stroke-dasharray="none"><path d="M190.417,47.833L184.417,44.833L190.417,41.833z" stroke="none" fill-opacity="1"/></g><g stroke-dasharray="none"><path d="M147.667,72.583L153.667,75.583L147.667,78.583z" stroke="none" fill-opacity="1"/></g><g stroke-dasharray="none"><path d="M128.917,109.333L122.917,106.333L128.917,103.333z" stroke="none" fill-opacity="1"/></g><g stroke-dasharray="none"><path d="M86.167,134.083L92.167,137.083L86.167,140.083z" stroke="none" fill-opacity="1"/></g><g stroke-dasharray="none"><path d="M67.917,170.333L61.917,167.333L67.917,164.333z" stroke="none" fill-opacity="1"/></g></g></g></g><g width="267.667" height="16.5" transform="scale(1,1) translate(792,548)"><g stroke="#000000" stroke-opacity="1" stroke-width="0" stroke-dasharray="none" width="267.667" height="16.5" transform="scale(1,1) translate(0,0)" fill="none"><rect width="267.667" height="16.5"/></g><g width="267.66666666666663" height="16.5" transform="scale(1,1) translate(0,0)"><text width="267.66666666666663" height="15.624999046325684" transform="scale(1,1) translate(0,0.4375004768371582)" xml:space="preserve"><tspan xml:space="preserve" text-rendering="optimizeSpeed" font-size="13.88888888888889" font-weight="normal" font-style="normal" text-decoration="none" fill="#333333" opacity="1" x="0" text-anchor="start" y="13.021" textLength="267.65948486328125" style="font-family: Arial, Helvetica Neue, Helvetica, sans-serif;">Entrega de aplicação visualmente apelativa</tspan></text></g></g><g width="236.167" height="16.667" transform="scale(1,1) translate(884.833,486.333)"><g stroke="#000000" stroke-opacity="1" stroke-width="0" stroke-dasharray="none" width="236.167" height="16.667" transform="scale(1,1) translate(0,0)" fill="none"><rect width="236.167" height="16.667"/></g><g width="236.16666666666666" height="16.666666666666664" transform="scale(1,1) translate(0,0)"><text width="236.16666666666666" height="15.624999046325684" transform="scale(1,1) translate(0,0.5208338101704904)" xml:space="preserve"><tspan xml:space="preserve" text-rendering="optimizeSpeed" font-size="13.88888888888889" font-weight="normal" font-style="normal" text-decoration="none" fill="#333333" opacity="1" x="0.123" text-anchor="start" y="13.021" textLength="236.04327392578125" style="font-family: Arial, Helvetica Neue, Helvetica, sans-serif;">Entrega de funcionalidades relevantes</tspan></text></g></g><g width="189.167" height="16.667" transform="scale(1,1) translate(1280.5,455.667)"><g stroke="#000000" stroke-opacity="1" stroke-width="0" stroke-dasharray="none" width="189.167" height="16.667" transform="scale(1,1) translate(0,0)" fill="none"><rect width="189.167" height="16.667"/></g><g width="189.16666666666666" height="16.666666666666664" transform="scale(1,1) translate(0,0)"><text width="189.16666666666666" height="15.624999046325684" transform="scale(1,1) translate(0,0.5208338101704904)" xml:space="preserve"><tspan xml:space="preserve" text-rendering="optimizeSpeed" font-size="13.88888888888889" font-weight="normal" font-style="normal" text-decoration="none" fill="#333333" opacity="1" x="0" text-anchor="start" y="13.021" textLength="188.9851837158203" style="font-family: Arial, Helvetica Neue, Helvetica, sans-serif;">Relação de suporte ao usuário</tspan></text></g></g><g width="248.75" height="229.25" transform="scale(1,1) translate(1031.75,189.917)"><g fill="#545454" stroke="#545454" stroke-opacity="1" transform="scale(1,1) translate(0,0)"><path fill="none" stroke-width="1" stroke-dasharray="none" d="M122.917,122.917 L184.417,184.417 M122.917,122.917 L0,0 M184.417,184.417 L229.25,229.25 M128.917,122.917 L187.25,122.917 M147.667,153.667 L89.333,153.667 M190.417,184.417 L248.75,184.417"/><g><g stroke-dasharray="none"><path d="M128.917,125.917L122.917,122.917L128.917,119.917z" stroke="none" fill-opacity="1"/></g><g stroke-dasharray="none"><path d="M147.667,150.667L153.667,153.667L147.667,156.667z" stroke="none" fill-opacity="1"/></g><g stroke-dasharray="none"><path d="M190.417,187.417L184.417,184.417L190.417,181.417z" stroke="none" fill-opacity="1"/></g></g></g></g><g width="174.333" height="16.667" transform="scale(1,1) translate(946.833,335.333)"><g stroke="#000000" stroke-opacity="1" stroke-width="0" stroke-dasharray="none" width="174.333" height="16.667" transform="scale(1,1) translate(0,0)" fill="none"><rect width="174.333" height="16.667"/></g><g width="174.33333333333331" height="16.666666666666664" transform="scale(1,1) translate(0,0)"><text width="174.33333333333331" height="15.624999046325684" transform="scale(1,1) translate(0,0.5208338101704904)" xml:space="preserve"><tspan xml:space="preserve" text-rendering="optimizeSpeed" font-size="13.88888888888889" font-weight="normal" font-style="normal" text-decoration="none" fill="#333333" opacity="1" x="0.017" text-anchor="start" y="13.021" textLength="174.31639099121094" style="font-family: Arial, Helvetica Neue, Helvetica, sans-serif;">Profissionais recomendados</tspan></text></g></g><g width="146.667" height="16.667" transform="scale(1,1) translate(1219,304.5)"><g stroke="#000000" stroke-opacity="1" stroke-width="0" stroke-dasharray="none" width="146.667" height="16.667" transform="scale(1,1) translate(0,0)" fill="none"><rect width="146.667" height="16.667"/></g><g width="146.66666666666666" height="16.666666666666664" transform="scale(1,1) translate(0,0)"><text width="146.66666666666666" height="15.624999046325684" transform="scale(1,1) translate(0,0.5208338101704904)" xml:space="preserve"><tspan xml:space="preserve" text-rendering="optimizeSpeed" font-size="13.88888888888889" font-weight="normal" font-style="normal" text-decoration="none" fill="#333333" opacity="1" x="0" text-anchor="start" y="13.021" textLength="146.5657501220703" style="font-family: Arial, Helvetica Neue, Helvetica, sans-serif;">Não ter que se deslocar</tspan></text></g></g><g width="248.75" height="229.25" transform="scale(1,1) translate(1681.417,419.167)"><g fill="#545454" stroke="#545454" stroke-opacity="1" transform="scale(1,1) translate(0,0)"><path fill="none" stroke-width="1" stroke-dasharray="none" d="M184.417,44.833 L61.417,167.833 M184.417,44.833 L229.25,0 M61.417,167.833 L0,229.25 M190.417,44.833 L248.75,44.833 M147.667,75.583 L89.333,75.583 M128.917,106.333 L187.25,106.333 M86.167,137.083 L27.833,137.083 M67.417,167.833 L125.75,167.833"/><g><g stroke-dasharray="none"><path d="M190.417,47.833L184.417,44.833L190.417,41.833z" stroke="none" fill-opacity="1"/></g><g stroke-dasharray="none"><path d="M147.667,72.583L153.667,75.583L147.667,78.583z" stroke="none" fill-opacity="1"/></g><g stroke-dasharray="none"><path d="M128.917,109.333L122.917,106.333L128.917,103.333z" stroke="none" fill-opacity="1"/></g><g stroke-dasharray="none"><path d="M86.167,134.083L92.167,137.083L86.167,140.083z" stroke="none" fill-opacity="1"/></g><g stroke-dasharray="none"><path d="M67.417,170.833L61.417,167.833L67.417,164.833z" stroke="none" fill-opacity="1"/></g></g></g></g><g width="105" height="16.667" transform="scale(1,1) translate(1868.667,517.167)"><g stroke="#000000" stroke-opacity="1" stroke-width="0" stroke-dasharray="none" width="105" height="16.667" transform="scale(1,1) translate(0,0)" fill="none"><rect width="105" height="16.667"/></g><g width="105" height="16.666666666666664" transform="scale(1,1) translate(0,0)"><text width="105" height="15.624999046325684" transform="scale(1,1) translate(0,0.5208338101704904)" xml:space="preserve"><tspan xml:space="preserve" text-rendering="optimizeSpeed" font-size="13.88888888888889" font-weight="normal" font-style="normal" text-decoration="none" fill="#333333" opacity="1" x="0" text-anchor="start" y="13.021" textLength="104.89907836914062" style="font-family: Arial, Helvetica Neue, Helvetica, sans-serif;">Aplicação Mobile</tspan></text></g></g><g width="145.167" height="16.667" transform="scale(1,1) translate(1625.667,486.333)"><g stroke="#000000" stroke-opacity="1" stroke-width="0" stroke-dasharray="none" width="145.167" height="16.667" transform="scale(1,1) translate(0,0)" fill="none"><rect width="145.167" height="16.667"/></g><g width="145.16666666666666" height="16.666666666666664" transform="scale(1,1) translate(0,0)"><text width="145.16666666666666" height="15.624999046325684" transform="scale(1,1) translate(0,0.5208338101704904)" xml:space="preserve"><tspan xml:space="preserve" text-rendering="optimizeSpeed" font-size="13.88888888888889" font-weight="normal" font-style="normal" text-decoration="none" fill="#333333" opacity="1" x="0.127" text-anchor="start" y="13.021" textLength="145.0398712158203" style="font-family: Arial, Helvetica Neue, Helvetica, sans-serif;">Performance adequada</tspan></text></g></g><g width="205.167" height="16.667" transform="scale(1,1) translate(1930.167,455.667)"><g stroke="#000000" stroke-opacity="1" stroke-width="0" stroke-dasharray="none" width="205.167" height="16.667" transform="scale(1,1) translate(0,0)" fill="none"><rect width="205.167" height="16.667"/></g><g width="205.16666666666666" height="16.666666666666664" transform="scale(1,1) translate(0,0)"><text width="205.16666666666666" height="15.624999046325684" transform="scale(1,1) translate(0,0.5208338101704904)" xml:space="preserve"><tspan xml:space="preserve" text-rendering="optimizeSpeed" font-size="13.88888888888889" font-weight="normal" font-style="normal" text-decoration="none" fill="#333333" opacity="1" x="0.007" text-anchor="start" y="13.021" textLength="205.1595001220703" style="font-family: Arial, Helvetica Neue, Helvetica, sans-serif;">Compatibilidade com dispositivos</tspan></text></g></g><g width="149.667" height="75" transform="scale(1,1) translate(957,114.833)"><g width="149.667" height="75" transform="scale(1,1) translate(0,0)" stroke="#F9DBE5" stroke-width="1" stroke-dasharray="none" fill="#F9DBE5" fill-opacity="1" stroke-opacity="1"><ellipse rx="74.8335" ry="37.5" cx="74.8335" cy="37.5"/></g><g width="105.16666666666666" height="52.33333333333333" transform="scale(1,1) translate(22.167,11.333)"><text width="105.16666666666666" height="15.624999046325684" transform="scale(1,1) translate(0,18.354167143503823)" xml:space="preserve"><tspan xml:space="preserve" text-rendering="optimizeSpeed" font-size="13.88888888888889" font-weight="normal" font-style="normal" text-decoration="none" fill="#333333" opacity="1" x="23.266" text-anchor="start" y="13.021" textLength="58.634437561035156" style="font-family: Arial, Helvetica Neue, Helvetica, sans-serif;">Ambiente</tspan></text></g></g><g width="149.667" height="75" transform="scale(1,1) translate(1606.667,648.5)"><g width="149.667" height="75" transform="scale(1,1) translate(0,0)" stroke="#F9DBE5" stroke-width="1" stroke-dasharray="none" fill="#F9DBE5" fill-opacity="1" stroke-opacity="1"><ellipse rx="74.8335" ry="37.5" cx="74.8335" cy="37.5"/></g><g width="105.16666666666666" height="52.33333333333333" transform="scale(1,1) translate(22.333,11.333)"><text width="105.16666666666666" height="15.624999046325684" transform="scale(1,1) translate(0,18.354167143503823)" xml:space="preserve"><tspan xml:space="preserve" text-rendering="optimizeSpeed" font-size="13.88888888888889" font-weight="normal" font-style="normal" text-decoration="none" fill="#333333" opacity="1" x="24.436" text-anchor="start" y="13.021" textLength="56.29475402832031" style="font-family: Arial, Helvetica Neue, Helvetica, sans-serif;">Materiais</tspan></text></g></g><g width="149.667" height="75" transform="scale(1,1) translate(267.5,114.833)"><g width="149.667" height="75" transform="scale(1,1) translate(0,0)" stroke="#F9DBE5" stroke-width="1" stroke-dasharray="none" fill="#F9DBE5" fill-opacity="1" stroke-opacity="1"><ellipse rx="74.8335" ry="37.5" cx="74.8335" cy="37.5"/></g><g width="105.16666666666666" height="52.33333333333333" transform="scale(1,1) translate(22.333,11.333)"><text width="105.16666666666666" height="15.624999046325684" transform="scale(1,1) translate(0,18.354167143503823)" xml:space="preserve"><tspan xml:space="preserve" text-rendering="optimizeSpeed" font-size="13.88888888888889" font-weight="normal" font-style="normal" text-decoration="none" fill="#333333" opacity="1" x="25.972" text-anchor="start" y="13.021" textLength="53.222652435302734" style="font-family: Arial, Helvetica Neue, Helvetica, sans-serif;">Pessoas</tspan></text></g></g><g width="149.667" height="75" transform="scale(1,1) translate(957,648.5)"><g width="149.667" height="75" transform="scale(1,1) translate(0,0)" stroke="#F9DBE5" stroke-width="1" stroke-dasharray="none" fill="#F9DBE5" fill-opacity="1" stroke-opacity="1"><ellipse rx="74.8335" ry="37.5" cx="74.8335" cy="37.5"/></g><g width="105.16666666666666" height="52.33333333333333" transform="scale(1,1) translate(22.167,11.333)"><text width="105.16666666666666" height="15.624999046325684" transform="scale(1,1) translate(0,18.354167143503823)" xml:space="preserve"><tspan xml:space="preserve" text-rendering="optimizeSpeed" font-size="13.88888888888889" font-weight="normal" font-style="normal" text-decoration="none" fill="#333333" opacity="1" x="29.441" text-anchor="start" y="13.021" textLength="46.28499221801758" style="font-family: Arial, Helvetica Neue, Helvetica, sans-serif;">Método</tspan></text></g></g><g width="149.667" height="75" transform="scale(1,1) translate(2255.667,381.667)"><g transform="scale(1,1) translate(0,0)" stroke="#FEBAB2" fill="#FEBAB2" fill-opacity="1" stroke-opacity="1"><path d="M0,15 a15,15 0 0,1 15,-15 l119.667,0 a15,15 0 0,1 15,15 l0,45 a15,15 0 0,1 -15,15 l-119.667,0 a15,15 0 0,1 -15,-15 z" stroke-width="1" stroke-dasharray="none"/></g><g width="140" height="65.33333333333333" transform="scale(1,1) translate(4.833,4.833)"><text width="140" height="46.87499713897705" transform="scale(1,1) translate(0,9.229168097178139)" xml:space="preserve"><tspan xml:space="preserve" text-rendering="optimizeSpeed" font-size="13.88888888888889" font-weight="normal" font-style="normal" text-decoration="none" fill="#333333" opacity="1" x="1.356" text-anchor="start" y="13.021" textLength="133.42283630371094" style="font-family: Arial, Helvetica Neue, Helvetica, sans-serif;">Satisfação do usuário</tspan><tspan xml:space="preserve" text-rendering="optimizeSpeed" font-size="13.88888888888889" font-weight="normal" font-style="normal" text-decoration="none" fill="#333333" opacity="1" x="13.695" text-anchor="start" y="28.646" textLength="108.76463317871094" style="font-family: Arial, Helvetica Neue, Helvetica, sans-serif;">de uma aplicação</tspan><tspan xml:space="preserve" text-rendering="optimizeSpeed" font-size="13.88888888888889" font-weight="normal" font-style="normal" text-decoration="none" fill="#333333" opacity="1" x="1.346" text-anchor="start" y="44.271" textLength="137.30874633789062" style="font-family: Arial, Helvetica Neue, Helvetica, sans-serif;">para o Público Fitness</tspan></text></g></g><g width="149.667" height="75" transform="scale(1,1) translate(267.5,648.5)"><g width="149.667" height="75" transform="scale(1,1) translate(0,0)" stroke="#F9DBE5" stroke-width="1" stroke-dasharray="none" fill="#F9DBE5" fill-opacity="1" stroke-opacity="1"><ellipse rx="74.8335" ry="37.5" cx="74.8335" cy="37.5"/></g><g width="105.16666666666666" height="52.33333333333333" transform="scale(1,1) translate(22.333,11.333)"><text width="105.16666666666666" height="15.624999046325684" transform="scale(1,1) translate(0,18.354167143503823)" xml:space="preserve"><tspan xml:space="preserve" text-rendering="optimizeSpeed" font-size="13.88888888888889" font-weight="normal" font-style="normal" text-decoration="none" fill="#333333" opacity="1" x="26.359" text-anchor="start" y="13.021" textLength="52.44953918457031" style="font-family: Arial, Helvetica Neue, Helvetica, sans-serif;">Medição</tspan></text></g></g><g width="282.417" height="229.25" transform="scale(1,1) translate(308.583,419.167)"><g fill="#545454" stroke="#545454" stroke-opacity="1" transform="scale(1,1) translate(0,0)"><path fill="none" stroke-width="1" stroke-dasharray="none" d="M218.083,44.833 L64.333,198.583 M218.083,44.833 L262.917,0 M64.333,198.583 L33.667,229.25 M224.083,44.833 L282.417,44.833 M181.333,75.583 L123,75.583 M162.583,106.333 L220.917,106.333 M119.833,137.083 L61.5,137.083 M101.083,167.833 L159.417,167.833 M58.333,198.583 L0,198.583"/><g><g stroke-dasharray="none"><path d="M224.083,47.833L218.083,44.833L224.083,41.833z" stroke="none" fill-opacity="1"/></g><g stroke-dasharray="none"><path d="M181.333,72.583L187.333,75.583L181.333,78.583z" stroke="none" fill-opacity="1"/></g><g stroke-dasharray="none"><path d="M162.583,109.333L156.583,106.333L162.583,103.333z" stroke="none" fill-opacity="1"/></g><g stroke-dasharray="none"><path d="M119.833,134.083L125.833,137.083L119.833,140.083z" stroke="none" fill-opacity="1"/></g><g stroke-dasharray="none"><path d="M101.083,170.833L95.083,167.833L101.083,164.833z" stroke="none" fill-opacity="1"/></g><g stroke-dasharray="none"><path d="M58.333,195.583L64.333,198.583L58.333,201.583z" stroke="none" fill-opacity="1"/></g></g></g></g><g width="230" height="16.667" transform="scale(1,1) translate(529.5,517.167)"><g stroke="#000000" stroke-opacity="1" stroke-width="0" stroke-dasharray="none" width="230" height="16.667" transform="scale(1,1) translate(0,0)" fill="none"><rect width="230" height="16.667"/></g><g width="230" height="16.666666666666664" transform="scale(1,1) translate(0,0)"><text width="230" height="15.624999046325684" transform="scale(1,1) translate(0,0.5208338101704904)" xml:space="preserve"><tspan xml:space="preserve" text-rendering="optimizeSpeed" font-size="13.88888888888889" font-weight="normal" font-style="normal" text-decoration="none" fill="#333333" opacity="1" x="0" text-anchor="start" y="13.021" textLength="229.85838317871094" style="font-family: Arial, Helvetica Neue, Helvetica, sans-serif;">Testes observacionais de usabilidade</tspan></text></g></g><g width="298.667" height="16.667" transform="scale(1,1) translate(132.833,486.5)"><g stroke="#000000" stroke-opacity="1" stroke-width="0" stroke-dasharray="none" width="298.667" height="16.667" transform="scale(1,1) translate(0,0)" fill="none"><rect width="298.667" height="16.667"/></g><g width="298.66666666666663" height="16.666666666666664" transform="scale(1,1) translate(0,0)"><text width="298.66666666666663" height="15.624999046325684" transform="scale(1,1) translate(0,0.5208338101704904)" xml:space="preserve"><tspan xml:space="preserve" text-rendering="optimizeSpeed" font-size="13.88888888888889" font-weight="normal" font-style="normal" text-decoration="none" fill="#333333" opacity="1" x="0.144" text-anchor="start" y="13.021" textLength="298.5229187011719" style="font-family: Arial, Helvetica Neue, Helvetica, sans-serif;">Boas avaliações e recomendações espontâneas</tspan></text></g></g><g width="235.333" height="16.667" transform="scale(1,1) translate(591,455.667)"><g stroke="#000000" stroke-opacity="1" stroke-width="0" stroke-dasharray="none" width="235.333" height="16.667" transform="scale(1,1) translate(0,0)" fill="none"><rect width="235.333" height="16.667"/></g><g width="235.33333333333331" height="16.666666666666664" transform="scale(1,1) translate(0,0)"><text width="235.33333333333331" height="15.624999046325684" transform="scale(1,1) translate(0,0.5208338101704904)" xml:space="preserve"><tspan xml:space="preserve" text-rendering="optimizeSpeed" font-size="13.88888888888889" font-weight="normal" font-style="normal" text-decoration="none" fill="#333333" opacity="1" x="0" text-anchor="start" y="13.021" textLength="235.24981689453125" style="font-family: Arial, Helvetica Neue, Helvetica, sans-serif;">Feedbacks positivos em questionários</tspan></text></g></g><g width="299.5" height="15.667" transform="scale(1,1) translate(1158,578.667)"><g stroke="#000000" stroke-opacity="1" stroke-width="0" stroke-dasharray="none" width="299.5" height="15.667" transform="scale(1,1) translate(0,0)" fill="none"><rect width="299.5" height="15.667"/></g><g width="299.5" height="15.666666666666666" transform="scale(1,1) translate(0,0)"><text width="299.5" height="15.624999046325684" transform="scale(1,1) translate(0,0.02083381017049124)" xml:space="preserve"><tspan xml:space="preserve" text-rendering="optimizeSpeed" font-size="13.88888888888889" font-weight="normal" font-style="normal" text-decoration="none" fill="#333333" opacity="1" x="0" text-anchor="start" y="13.021" textLength="246.05303955078125" style="font-family: Arial, Helvetica Neue, Helvetica, sans-serif;">Garantir Usabilidade e facilidade de uso</tspan></text></g></g><g width="318" height="16.667" transform="scale(1,1) translate(1219,517.167)"><g stroke="#000000" stroke-opacity="1" stroke-width="0" stroke-dasharray="none" width="318" height="16.667" transform="scale(1,1) translate(0,0)" fill="none"><rect width="318" height="16.667"/></g><g width="318" height="16.666666666666664" transform="scale(1,1) translate(0,0)"><text width="318" height="15.624999046325684" transform="scale(1,1) translate(0,0.5208338101704904)" xml:space="preserve"><tspan xml:space="preserve" text-rendering="optimizeSpeed" font-size="13.88888888888889" font-weight="normal" font-style="normal" text-decoration="none" fill="#333333" opacity="1" x="0.19" text-anchor="start" y="13.021" textLength="317.8100280761719" style="font-family: Arial, Helvetica Neue, Helvetica, sans-serif;">Permitir a escolha de prestadores de boa qualidade</tspan></text></g></g><g width="165.167" height="16.667" transform="scale(1,1) translate(205,548)"><g stroke="#000000" stroke-opacity="1" stroke-width="0" stroke-dasharray="none" width="165.167" height="16.667" transform="scale(1,1) translate(0,0)" fill="none"><rect width="165.167" height="16.667"/></g><g width="165.16666666666666" height="16.666666666666664" transform="scale(1,1) translate(0,0)"><text width="165.16666666666666" height="15.624999046325684" transform="scale(1,1) translate(0,0.5208338101704904)" xml:space="preserve"><tspan xml:space="preserve" text-rendering="optimizeSpeed" font-size="13.88888888888889" font-weight="normal" font-style="normal" text-decoration="none" fill="#333333" opacity="1" x="0" text-anchor="start" y="13.021" textLength="165.10008239746094" style="font-family: Arial, Helvetica Neue, Helvetica, sans-serif;">Menor quantidade de bugs</tspan></text></g></g><g width="164.333" height="16.667" transform="scale(1,1) translate(468,578.667)"><g stroke="#000000" stroke-opacity="1" stroke-width="0" stroke-dasharray="none" width="164.333" height="16.667" transform="scale(1,1) translate(0,0)" fill="none"><rect width="164.333" height="16.667"/></g><g width="164.33333333333331" height="16.666666666666664" transform="scale(1,1) translate(0,0)"><text width="164.33333333333331" height="15.624999046325684" transform="scale(1,1) translate(0,0.5208338101704904)" xml:space="preserve"><tspan xml:space="preserve" text-rendering="optimizeSpeed" font-size="13.88888888888889" font-weight="normal" font-style="normal" text-decoration="none" fill="#333333" opacity="1" x="0" text-anchor="start" y="13.021" textLength="164.30662536621094" style="font-family: Arial, Helvetica Neue, Helvetica, sans-serif;">Menor gravidade dos bugs</tspan></text></g></g><g width="196.167" height="16.5" transform="scale(1,1) translate(112.5,609.5)"><g stroke="#000000" stroke-opacity="1" stroke-width="0" stroke-dasharray="none" width="196.167" height="16.5" transform="scale(1,1) translate(0,0)" fill="none"><rect width="196.167" height="16.5"/></g><g width="196.16666666666666" height="16.5" transform="scale(1,1) translate(0,0)"><text width="196.16666666666666" height="15.624999046325684" transform="scale(1,1) translate(0,0.4375004768371582)" xml:space="preserve"><tspan xml:space="preserve" text-rendering="optimizeSpeed" font-size="13.88888888888889" font-weight="normal" font-style="normal" text-decoration="none" fill="#333333" opacity="1" x="0" text-anchor="start" y="13.021" textLength="195.9431915283203" style="font-family: Arial, Helvetica Neue, Helvetica, sans-serif;">Efetividade no uso da aplicação</tspan></text></g></g><g width="275.5" height="16.667" transform="scale(1,1) translate(1280.5,366)"><g stroke="#000000" stroke-opacity="1" stroke-width="0" stroke-dasharray="none" width="275.5" height="16.667" transform="scale(1,1) translate(0,0)" fill="none"><rect width="275.5" height="16.667"/></g><g width="275.5" height="16.666666666666664" transform="scale(1,1) translate(0,0)"><text width="275.5" height="15.624999046325684" transform="scale(1,1) translate(0,0.5208338101704904)" xml:space="preserve"><tspan xml:space="preserve" text-rendering="optimizeSpeed" font-size="13.88888888888889" font-weight="normal" font-style="normal" text-decoration="none" fill="#333333" opacity="1" x="0.13" text-anchor="start" y="13.021" textLength="275.3702697753906" style="font-family: Arial, Helvetica Neue, Helvetica, sans-serif;">Comunidade interessada no mesmo assunto</tspan></text></g></g><g width="133.464" height="16.667" transform="scale(1,1) translate(1575.786,547.917)"><g stroke="#000000" stroke-opacity="1" stroke-width="0" stroke-dasharray="none" width="133.464" height="16.667" transform="scale(1,1) translate(0,0)" fill="none"><rect width="133.464" height="16.667"/></g><g width="133.46353149414062" height="16.666666666666664" transform="scale(1,1) translate(0,0)"><text width="133.46353149414062" height="15.624999046325684" transform="scale(1,1) translate(0,0.5208338101704904)" xml:space="preserve"><tspan xml:space="preserve" text-rendering="optimizeSpeed" font-size="13.88888888888889" font-weight="normal" font-style="normal" text-decoration="none" fill="#333333" opacity="1" x="0" text-anchor="start" y="13.021" textLength="133.46353149414062" style="font-family: Arial, Helvetica Neue, Helvetica, sans-serif;">Updates da aplicação</tspan></text></g></g><g width="168.905" height="16.667" transform="scale(1,1) translate(1807.167,578.667)"><g stroke="#000000" stroke-opacity="1" stroke-width="0" stroke-dasharray="none" width="168.905" height="16.667" transform="scale(1,1) translate(0,0)" fill="none"><rect width="168.905" height="16.667"/></g><g width="168.9046173095703" height="16.666666666666664" transform="scale(1,1) translate(0,0)"><text width="168.9046173095703" height="15.624999046325684" transform="scale(1,1) translate(0,0.5208338101704904)" xml:space="preserve"><tspan xml:space="preserve" text-rendering="optimizeSpeed" font-size="13.88888888888889" font-weight="normal" font-style="normal" text-decoration="none" fill="#333333" opacity="1" x="0" text-anchor="start" y="13.021" textLength="168.9046173095703" style="font-family: Arial, Helvetica Neue, Helvetica, sans-serif;">Novas features e melhorias</tspan></text></g></g></g></svg>