<?xml version="1.0" standalone="no"?><!DOCTYPE svg PUBLIC "-//W3C//DTD SVG 1.1//EN" "http://www.w3.org/Graphics/SVG/1.1/DTD/svg11.dtd"><svg xmlns="http://www.w3.org/2000/svg" version="1.1" width="2105.265" height="511.667" xmlns:xlink="http://www.w3.org/1999/xlink" xlink="http://www.w3.org/1999/xlink" style="position:relative;overflow:hidden;" viewBox="-12 119.333 2105.265 511.667"><defs/><g><g width="1654" height="0" transform="scale(1,1) translate(272.099,375)"><g fill="#545454" stroke="#545454" stroke-opacity="1" transform="scale(1,1) translate(0,0)"><path fill="none" stroke-width="1" stroke-dasharray="none" d="M0,0 L1286,0 M0,0 L0,0 M1648,0 L1286,0 M0,0 L0,0 M0,0 L0,0 M743.5,0 L743.5,0 M743.5,0 L743.5,0 M1286,0 L1286,0"/><g><g stroke-dasharray="none"><path d="M1648,-3L1654,0L1648,3z" stroke="none" fill-opacity="1"/></g></g></g></g><g width="154.667" height="51.833" transform="scale(1,1) translate(1926.099,349.167)"><g stroke="#CEE7E9" stroke-opacity="1" stroke-width="1" stroke-dasharray="none" width="154.667" height="51.833" transform="scale(1,1) translate(0,0)" fill="#CEE7E9" fill-opacity="1"><rect width="154.667" height="51.833"/></g><g width="149.66666666666666" height="46.87499713897705" transform="scale(1,1) translate(2.5,2.5)"><text width="149.66666666666666" height="46.87499713897705" transform="scale(1,1) translate(0,0)" xml:space="preserve"><tspan xml:space="preserve" text-rendering="optimizeSpeed" font-size="13.88888888888889" font-weight="normal" font-style="normal" text-decoration="none" fill="#333333" opacity="1" x="30.868" text-anchor="start" y="13.021" textLength="84.06575012207031" style="font-family: Arial, Helvetica Neue, Helvetica, sans-serif;">Satisfação do</tspan><tspan xml:space="preserve" text-rendering="optimizeSpeed" font-size="13.88888888888889" font-weight="normal" font-style="normal" text-decoration="none" fill="#333333" opacity="1" x="0.798" text-anchor="start" y="28.646" textLength="144.22606658935547" style="font-family: Arial, Helvetica Neue, Helvetica, sans-serif;">Profissional cadastrado</tspan><tspan xml:space="preserve" text-rendering="optimizeSpeed" font-size="13.88888888888889" font-weight="normal" font-style="normal" text-decoration="none" fill="#333333" opacity="1" x="10.421" text-anchor="start" y="44.271" textLength="128.82485961914062" style="font-family: Arial, Helvetica Neue, Helvetica, sans-serif;">na plataforma fitness</tspan></text></g></g><g width="193.333" height="168.333" transform="scale(1,1) translate(847.265,375)"><g fill="#545454" stroke="#545454" stroke-opacity="1" transform="scale(1,1) translate(0,0)"><path fill="none" stroke-width="1" stroke-dasharray="none" d="M143.333,25 L71.833,96.5 M143.333,25 L168.333,0 M71.833,96.5 L0,168.333 M149.333,25 L193.333,25 M101.5,60.833 L57.5,60.833 M77.833,96.5 L121.833,96.5"/><g><g stroke-dasharray="none"><path d="M149.333,28L143.333,25L149.333,22z" stroke="none" fill-opacity="1"/></g><g stroke-dasharray="none"><path d="M101.5,57.833L107.5,60.833L101.5,63.833z" stroke="none" fill-opacity="1"/></g><g stroke-dasharray="none"><path d="M77.833,99.5L71.833,96.5L77.833,93.5z" stroke="none" fill-opacity="1"/></g></g></g></g><g width="167" height="21.667" transform="scale(1,1) translate(1040.599,389.167)"><g stroke="#000000" stroke-opacity="1" stroke-width="0" stroke-dasharray="none" width="167" height="21.667" transform="scale(1,1) translate(0,0)" fill="none"><rect width="167" height="21.667"/></g><g width="161.33333333333331" height="16" transform="scale(1,1) translate(2.833,2.833)"><text width="161.33333333333331" height="15.624999046325684" transform="scale(1,1) translate(0,0.1875004768371582)" xml:space="preserve"><tspan xml:space="preserve" text-rendering="optimizeSpeed" font-size="13.88888888888889" font-weight="normal" font-style="normal" text-decoration="none" fill="#333333" opacity="1" x="0.14" text-anchor="start" y="13.021" textLength="161.19383239746094" style="font-family: Arial, Helvetica Neue, Helvetica, sans-serif;">Acesso direto aos clientes</tspan></text></g></g><g width="212.5" height="21.667" transform="scale(1,1) translate(692.265,425)"><g stroke="#000000" stroke-opacity="1" stroke-width="0" stroke-dasharray="none" width="212.5" height="21.667" transform="scale(1,1) translate(0,0)" fill="none"><rect width="212.5" height="21.667"/></g><g width="206.83333333333331" height="16" transform="scale(1,1) translate(2.833,2.833)"><text width="206.83333333333331" height="15.624999046325684" transform="scale(1,1) translate(0,0.1875004768371582)" xml:space="preserve"><tspan xml:space="preserve" text-rendering="optimizeSpeed" font-size="13.88888888888889" font-weight="normal" font-style="normal" text-decoration="none" fill="#333333" opacity="1" x="0.107" text-anchor="start" y="13.021" textLength="206.72605895996094" style="font-family: Arial, Helvetica Neue, Helvetica, sans-serif;">Os cliente vêm expontâneamente</tspan></text></g></g><g width="150.833" height="75.167" transform="scale(1,1) translate(771.849,543.333)"><g stroke="#CEE7E9" stroke-opacity="1" stroke-width="1" stroke-dasharray="none" width="150.833" height="75.167" transform="scale(1,1) translate(0,0)" fill="#CEE7E9" fill-opacity="1"><rect width="150.833" height="75.167"/></g><g width="145.83333333333331" height="70.16666666666666" transform="scale(1,1) translate(2.5,2.5)"><text width="145.83333333333331" height="15.624999046325684" transform="scale(1,1) translate(0,27.270833810170487)" xml:space="preserve"><tspan xml:space="preserve" text-rendering="optimizeSpeed" font-size="13.88888888888889" font-weight="normal" font-style="normal" text-decoration="none" fill="#333333" opacity="1" x="46.305" text-anchor="start" y="13.021" textLength="53.222652435302734" style="font-family: Arial, Helvetica Neue, Helvetica, sans-serif;">Pessoas</tspan></text></g></g><g width="193.333" height="168.333" transform="scale(1,1) translate(1389.765,375)"><g fill="#545454" stroke="#545454" stroke-opacity="1" transform="scale(1,1) translate(0,0)"><path fill="none" stroke-width="1" stroke-dasharray="none" d="M143.333,25 L64,104.333 M143.333,25 L168.333,0 M64,104.333 L0,168.333 M149.333,25 L193.333,25 M101.5,60.833 L57.5,60.833 M70,104.333 L114,104.333"/><g><g stroke-dasharray="none"><path d="M149.333,28L143.333,25L149.333,22z" stroke="none" fill-opacity="1"/></g><g stroke-dasharray="none"><path d="M101.5,57.833L107.5,60.833L101.5,63.833z" stroke="none" fill-opacity="1"/></g><g stroke-dasharray="none"><path d="M70,107.333L64,104.333L70,101.333z" stroke="none" fill-opacity="1"/></g></g></g></g><g width="238.667" height="21.667" transform="scale(1,1) translate(1583.099,389.167)"><g stroke="#000000" stroke-opacity="1" stroke-width="0" stroke-dasharray="none" width="238.667" height="21.667" transform="scale(1,1) translate(0,0)" fill="none"><rect width="238.667" height="21.667"/></g><g width="233" height="16" transform="scale(1,1) translate(2.833,2.833)"><text width="233" height="15.624999046325684" transform="scale(1,1) translate(0,0.1875004768371582)" xml:space="preserve"><tspan xml:space="preserve" text-rendering="optimizeSpeed" font-size="13.88888888888889" font-weight="normal" font-style="normal" text-decoration="none" fill="#333333" opacity="1" x="0.045" text-anchor="start" y="13.021" textLength="232.91014099121094" style="font-family: Arial, Helvetica Neue, Helvetica, sans-serif;">Unir profissionais de diferentes ramos</tspan></text></g></g><g width="184.667" height="21.667" transform="scale(1,1) translate(1262.599,425)"><g stroke="#000000" stroke-opacity="1" stroke-width="0" stroke-dasharray="none" width="184.667" height="21.667" transform="scale(1,1) translate(0,0)" fill="none"><rect width="184.667" height="21.667"/></g><g width="179" height="16" transform="scale(1,1) translate(2.833,2.833)"><text width="179" height="15.624999046325684" transform="scale(1,1) translate(0,0.1875004768371582)" xml:space="preserve"><tspan xml:space="preserve" text-rendering="optimizeSpeed" font-size="13.88888888888889" font-weight="normal" font-style="normal" text-decoration="none" fill="#333333" opacity="1" x="0.045" text-anchor="start" y="13.021" textLength="178.95506286621094" style="font-family: Arial, Helvetica Neue, Helvetica, sans-serif;">Comunidade de profissionais</tspan></text></g></g><g width="149.5" height="74.5" transform="scale(1,1) translate(1315.015,543.333)"><g stroke="#CEE7E9" stroke-opacity="1" stroke-width="1" stroke-dasharray="none" width="149.5" height="74.5" transform="scale(1,1) translate(0,0)" fill="#CEE7E9" fill-opacity="1"><rect width="149.5" height="74.5"/></g><g width="144.5" height="69.5" transform="scale(1,1) translate(2.5,2.5)"><text width="144.5" height="15.624999046325684" transform="scale(1,1) translate(0,26.937500476837158)" xml:space="preserve"><tspan xml:space="preserve" text-rendering="optimizeSpeed" font-size="13.88888888888889" font-weight="normal" font-style="normal" text-decoration="none" fill="#333333" opacity="1" x="42.933" text-anchor="start" y="13.021" textLength="58.634437561035156" style="font-family: Arial, Helvetica Neue, Helvetica, sans-serif;">Ambiente</tspan></text></g></g><g width="168.333" height="168.333" transform="scale(1,1) translate(847.265,206.667)"><g fill="#545454" stroke="#545454" stroke-opacity="1" transform="scale(1,1) translate(0,0)"><path fill="none" stroke-width="1" stroke-dasharray="none" d="M35.833,35.833 L143.333,143.333 M35.833,35.833 L0,0 M143.333,143.333 L168.333,168.333 M41.833,35.833 L85.833,35.833 M65.667,71.667 L21.667,71.667 M113.5,107.5 L157.5,107.5 M137.333,143.333 L93.333,143.333"/><g><g stroke-dasharray="none"><path d="M41.833,38.833L35.833,35.833L41.833,32.833z" stroke="none" fill-opacity="1"/></g><g stroke-dasharray="none"><path d="M65.667,68.667L71.667,71.667L65.667,74.667z" stroke="none" fill-opacity="1"/></g><g stroke-dasharray="none"><path d="M113.5,110.5L107.5,107.5L113.5,104.5z" stroke="none" fill-opacity="1"/></g><g stroke-dasharray="none"><path d="M137.333,140.333L143.333,143.333L137.333,146.333z" stroke="none" fill-opacity="1"/></g></g></g></g><g width="82.833" height="21.667" transform="scale(1,1) translate(933.099,231.667)"><g stroke="#000000" stroke-opacity="1" stroke-width="0" stroke-dasharray="none" width="82.833" height="21.667" transform="scale(1,1) translate(0,0)" fill="none"><rect width="82.833" height="21.667"/></g><g width="77.16666666666666" height="16" transform="scale(1,1) translate(2.833,2.833)"><text width="77.16666666666666" height="15.624999046325684" transform="scale(1,1) translate(0,0.1875004768371582)" xml:space="preserve"><tspan xml:space="preserve" text-rendering="optimizeSpeed" font-size="13.88888888888889" font-weight="normal" font-style="normal" text-decoration="none" fill="#333333" opacity="1" x="0.039" text-anchor="start" y="13.021" textLength="77.12808990478516" style="font-family: Arial, Helvetica Neue, Helvetica, sans-serif;">Postar aulas</tspan></text></g></g><g width="203.167" height="21.667" transform="scale(1,1) translate(1004.765,303.333)"><g stroke="#000000" stroke-opacity="1" stroke-width="0" stroke-dasharray="none" width="203.167" height="21.667" transform="scale(1,1) translate(0,0)" fill="none"><rect width="203.167" height="21.667"/></g><g width="197.5" height="16" transform="scale(1,1) translate(2.833,2.833)"><text width="197.5" height="15.624999046325684" transform="scale(1,1) translate(0,0.1875004768371582)" xml:space="preserve"><tspan xml:space="preserve" text-rendering="optimizeSpeed" font-size="13.88888888888889" font-weight="normal" font-style="normal" text-decoration="none" fill="#333333" opacity="1" x="0.092" text-anchor="start" y="13.021" textLength="197.4080352783203" style="font-family: Arial, Helvetica Neue, Helvetica, sans-serif;">Permitir criar planos de serviços</tspan></text></g></g><g width="149.5" height="74.5" transform="scale(1,1) translate(772.515,132.167)"><g stroke="#CEE7E9" stroke-opacity="1" stroke-width="1" stroke-dasharray="none" width="149.5" height="74.5" transform="scale(1,1) translate(0,0)" fill="#CEE7E9" fill-opacity="1"><rect width="149.5" height="74.5"/></g><g width="144.5" height="69.5" transform="scale(1,1) translate(2.5,2.5)"><text width="144.5" height="15.624999046325684" transform="scale(1,1) translate(0,26.937500476837158)" xml:space="preserve"><tspan xml:space="preserve" text-rendering="optimizeSpeed" font-size="13.88888888888889" font-weight="normal" font-style="normal" text-decoration="none" fill="#333333" opacity="1" x="49.108" text-anchor="start" y="13.021" textLength="46.28499221801758" style="font-family: Arial, Helvetica Neue, Helvetica, sans-serif;">Método</tspan></text></g></g><g width="193.333" height="168.333" transform="scale(1,1) translate(103.765,375)"><g fill="#545454" stroke="#545454" stroke-opacity="1" transform="scale(1,1) translate(0,0)"><path fill="none" stroke-width="1" stroke-dasharray="none" d="M143.333,25 L143.333,25 M143.333,25 L168.333,0 M143.333,25 L0,168.333 M149.333,25 L193.333,25"/><g><g stroke-dasharray="none"><path d="M149.333,28L143.333,25L149.333,22z" stroke="none" fill-opacity="1"/></g></g></g></g><g width="300.5" height="21.667" transform="scale(1,1) translate(297.099,389.167)"><g stroke="#000000" stroke-opacity="1" stroke-width="0" stroke-dasharray="none" width="300.5" height="21.667" transform="scale(1,1) translate(0,0)" fill="none"><rect width="300.5" height="21.667"/></g><g width="294.8333333333333" height="16" transform="scale(1,1) translate(2.833,2.833)"><text width="294.8333333333333" height="15.624999046325684" transform="scale(1,1) translate(0,0.1875004768371582)" xml:space="preserve"><tspan xml:space="preserve" text-rendering="optimizeSpeed" font-size="13.88888888888889" font-weight="normal" font-style="normal" text-decoration="none" fill="#333333" opacity="1" x="0.196" text-anchor="start" y="13.021" textLength="294.63702392578125" style="font-family: Arial, Helvetica Neue, Helvetica, sans-serif;">Semelhante aos aspectos dos usuários comuns</tspan></text></g></g><g width="185.5" height="21.333" transform="scale(1,1) translate(683.432,267.667)"><g stroke="#000000" stroke-opacity="1" stroke-width="0" stroke-dasharray="none" width="185.5" height="21.333" transform="scale(1,1) translate(0,0)" fill="none"><rect width="185.5" height="21.333"/></g><g width="179.83333333333331" height="15.666666666666666" transform="scale(1,1) translate(2.833,2.833)"><text width="179.83333333333331" height="15.624999046325684" transform="scale(1,1) translate(0,0.02083381017049124)" xml:space="preserve"><tspan xml:space="preserve" text-rendering="optimizeSpeed" font-size="13.88888888888889" font-weight="normal" font-style="normal" text-decoration="none" fill="#333333" opacity="1" x="0.125" text-anchor="start" y="13.021" textLength="179.7078399658203" style="font-family: Arial, Helvetica Neue, Helvetica, sans-serif;">Criar materiais de divulgação</tspan></text></g></g><g width="149.667" height="74.5" transform="scale(1,1) translate(28.932,543.333)"><g stroke="#CEE7E9" stroke-opacity="1" stroke-width="1" stroke-dasharray="none" width="149.667" height="74.5" transform="scale(1,1) translate(0,0)" fill="#CEE7E9" fill-opacity="1"><rect width="149.667" height="74.5"/></g><g width="144.66666666666666" height="69.5" transform="scale(1,1) translate(2.5,2.5)"><text width="144.66666666666666" height="15.624999046325684" transform="scale(1,1) translate(0,26.937500476837158)" xml:space="preserve"><tspan xml:space="preserve" text-rendering="optimizeSpeed" font-size="13.88888888888889" font-weight="normal" font-style="normal" text-decoration="none" fill="#333333" opacity="1" x="46.109" text-anchor="start" y="13.021" textLength="52.44953918457031" style="font-family: Arial, Helvetica Neue, Helvetica, sans-serif;">Medição</tspan></text></g></g><g width="207.833" height="21.333" transform="scale(1,1) translate(969.099,460.833)"><g stroke="#000000" stroke-opacity="1" stroke-width="0" stroke-dasharray="none" width="207.833" height="21.333" transform="scale(1,1) translate(0,0)" fill="none"><rect width="207.833" height="21.333"/></g><g width="202.16666666666666" height="15.666666666666666" transform="scale(1,1) translate(2.833,2.833)"><text width="202.16666666666666" height="15.624999046325684" transform="scale(1,1) translate(0,0.02083381017049124)" xml:space="preserve"><tspan xml:space="preserve" text-rendering="optimizeSpeed" font-size="13.88888888888889" font-weight="normal" font-style="normal" text-decoration="none" fill="#333333" opacity="1" x="0.079" text-anchor="start" y="13.021" textLength="202.08738708496094" style="font-family: Arial, Helvetica Neue, Helvetica, sans-serif;">Praticidade para divulgar valores</tspan></text></g></g><g width="164.667" height="21.333" transform="scale(1,1) translate(775.932,339.333)"><g stroke="#000000" stroke-opacity="1" stroke-width="0" stroke-dasharray="none" width="164.667" height="21.333" transform="scale(1,1) translate(0,0)" fill="none"><rect width="164.667" height="21.333"/></g><g width="159" height="15.666666666666666" transform="scale(1,1) translate(2.833,2.833)"><text width="159" height="15.624999046325684" transform="scale(1,1) translate(0,0.02083381017049124)" xml:space="preserve"><tspan xml:space="preserve" text-rendering="optimizeSpeed" font-size="13.88888888888889" font-weight="normal" font-style="normal" text-decoration="none" fill="#333333" opacity="1" x="0.126" text-anchor="start" y="13.021" textLength="158.87449645996094" style="font-family: Arial, Helvetica Neue, Helvetica, sans-serif;">Compartilhar documentos</tspan></text></g></g><g width="359.833" height="37" transform="scale(1,1) translate(1503.765,460.833)"><g stroke="#000000" stroke-opacity="1" stroke-width="0" stroke-dasharray="none" width="359.833" height="37" transform="scale(1,1) translate(0,0)" fill="none"><rect width="359.833" height="37"/></g><g width="354.16666666666663" height="31.333333333333332" transform="scale(1,1) translate(2.833,2.833)"><text width="354.16666666666663" height="31.249998092651367" transform="scale(1,1) translate(0,0.04166762034098248)" xml:space="preserve"><tspan xml:space="preserve" text-rendering="optimizeSpeed" font-size="13.88888888888889" font-weight="normal" font-style="normal" text-decoration="none" fill="#333333" opacity="1" x="0.163" text-anchor="start" y="13.021" textLength="354.0038757324219" style="font-family: Arial, Helvetica Neue, Helvetica, sans-serif;">Criação de um corpo profissional acessível coletivamente</tspan></text></g></g><g width="193.333" height="168.333" transform="scale(1,1) translate(103.765,206.667)"><g fill="#545454" stroke="#545454" stroke-opacity="1" transform="scale(1,1) translate(0,0)"><path fill="none" stroke-width="1" stroke-dasharray="none" d="M77.708,77.708 L143.333,143.333 M77.708,77.708 L0,0 M143.333,143.333 L168.333,168.333 M83.708,77.708 L127.708,77.708 M104.521,110.521 L60.521,110.521 M149.333,143.333 L193.333,143.333"/><g><g stroke-dasharray="none"><path d="M83.708,80.708L77.708,77.708L83.708,74.708z" stroke="none" fill-opacity="1"/></g><g stroke-dasharray="none"><path d="M104.521,107.521L110.521,110.521L104.521,113.521z" stroke="none" fill-opacity="1"/></g><g stroke-dasharray="none"><path d="M149.333,146.333L143.333,143.333L149.333,140.333z" stroke="none" fill-opacity="1"/></g></g></g></g><g width="150.167" height="74.833" transform="scale(1,1) translate(28.682,131.833)"><g stroke="#CEE7E9" stroke-opacity="1" stroke-width="1" stroke-dasharray="none" width="150.167" height="74.833" transform="scale(1,1) translate(0,0)" fill="#CEE7E9" fill-opacity="1"><rect width="150.167" height="74.833"/></g><g width="145.16666666666666" height="69.83333333333333" transform="scale(1,1) translate(2.5,2.5)"><text width="145.16666666666666" height="15.624999046325684" transform="scale(1,1) translate(0,27.104167143503823)" xml:space="preserve"><tspan xml:space="preserve" text-rendering="optimizeSpeed" font-size="13.88888888888889" font-weight="normal" font-style="normal" text-decoration="none" fill="#333333" opacity="1" x="47.905" text-anchor="start" y="13.021" textLength="49.357093811035156" style="font-family: Arial, Helvetica Neue, Helvetica, sans-serif;">Material</tspan></text></g></g><g width="197.489" height="15.625" transform="scale(1,1) translate(231.474,276.563)"><g stroke="#545454" stroke-opacity="1" stroke-width="0" stroke-dasharray="none" width="197.489" height="15.625" transform="scale(1,1) translate(0,0)" fill="none"><rect width="197.489" height="15.625"/></g><g width="197.48941040039062" height="15.624999046325684" transform="scale(1,1) translate(0,0)"><text width="197.48941040039062" height="15.624999046325684" transform="scale(1,1) translate(0,0)" xml:space="preserve"><tspan xml:space="preserve" text-rendering="optimizeSpeed" font-size="13.88888888888889" font-weight="normal" font-style="normal" text-decoration="none" fill="#333333" opacity="1" x="0" text-anchor="start" y="13.021" textLength="197.48941040039062" style="font-family: Arial, Helvetica Neue, Helvetica, sans-serif;">Updates contínuos da aplicação</tspan></text></g></g><g width="164.286" height="15.625" transform="scale(1,1) translate(0,309.375)"><g stroke="#545454" stroke-opacity="1" stroke-width="0" stroke-dasharray="none" width="164.286" height="15.625" transform="scale(1,1) translate(0,0)" fill="none"><rect width="164.286" height="15.625"/></g><g width="164.28628540039062" height="15.624999046325684" transform="scale(1,1) translate(0,0)"><text width="164.28628540039062" height="15.624999046325684" transform="scale(1,1) translate(0,0)" xml:space="preserve"><tspan xml:space="preserve" text-rendering="optimizeSpeed" font-size="13.88888888888889" font-weight="normal" font-style="normal" text-decoration="none" fill="#333333" opacity="1" x="0" text-anchor="start" y="13.021" textLength="164.28628540039062" style="font-family: Arial, Helvetica Neue, Helvetica, sans-serif;">Mapeamento de melhorias</tspan></text></g></g><g width="202.087" height="15.625" transform="scale(1,1) translate(297.099,342.188)"><g stroke="#545454" stroke-opacity="1" stroke-width="0" stroke-dasharray="none" width="202.087" height="15.625" transform="scale(1,1) translate(0,0)" fill="none"><rect width="202.087" height="15.625"/></g><g width="202.08738708496094" height="15.624999046325684" transform="scale(1,1) translate(0,0)"><text width="202.08738708496094" height="15.624999046325684" transform="scale(1,1) translate(0,0)" xml:space="preserve"><tspan xml:space="preserve" text-rendering="optimizeSpeed" font-size="13.88888888888889" font-weight="normal" font-style="normal" text-decoration="none" fill="#333333" opacity="1" x="0" text-anchor="start" y="13.021" textLength="202.08738708496094" style="font-family: Arial, Helvetica Neue, Helvetica, sans-serif;">Mapeamentos de novas features</tspan></text></g></g></g></svg>