<svg xmlns="http://www.w3.org/2000/svg" xmlns:xlink="http://www.w3.org/1999/xlink" xmlns:lucid="lucid" width="860" height="620"><g transform="translate(-140 -20)" lucid:page-tab-id="0_0"><path d="M0 0h1870.87v1322.83H0z" fill="#fff"/><path d="M160 46a6 6 0 0 1 6-6h313a6 6 0 0 1 6 6v8a14.5 14.5 0 0 1-4.24 10.24l-1.52 1.52A14.5 14.5 0 0 1 469 70H166a6 6 0 0 1-6-6z" fill="#fff"/><path d="M485 40v20l-10 10H160" stroke="#5e5e5e" stroke-width="3" fill="none"/><path d="M160 46a6 6 0 0 1 6-6h808a6 6 0 0 1 6 6v568a6 6 0 0 1-6 6H166a6 6 0 0 1-6-6z" stroke="#5e5e5e" stroke-width="3" fill="none"/><use xlink:href="#a" transform="matrix(1,0,0,1,168,40) translate(0 18.6)"/><path d="M200 166a6 6 0 0 1 6-6h103a6 6 0 0 1 6 6v8a14.5 14.5 0 0 1-4.24 10.24l-1.52 1.52A14.5 14.5 0 0 1 299 190h-93a6 6 0 0 1-6-6z" fill="#fff"/><path d="M315 160v20l-10 10H200" stroke="#5e5e5e" stroke-width="3" fill="none"/><path d="M200 166a6 6 0 0 1 6-6h648a6 6 0 0 1 6 6v208a6 6 0 0 1-6 6H206a6 6 0 0 1-6-6z" stroke="#5e5e5e" stroke-width="3" fill="none"/><use xlink:href="#b" transform="matrix(1,0,0,1,208,160) translate(0 18.6)"/><path d="M220 226a6 6 0 0 1 6-6h103a6 6 0 0 1 6 6v8a14.5 14.5 0 0 1-4.24 10.24l-1.52 1.52A14.5 14.5 0 0 1 319 250h-93a6 6 0 0 1-6-6z" fill="#fff"/><path d="M335 220v20l-10 10H220" stroke="#5e5e5e" stroke-width="3" fill="none"/><path d="M220 226a6 6 0 0 1 6-6h148a6 6 0 0 1 6 6v88a6 6 0 0 1-6 6H226a6 6 0 0 1-6-6z" stroke="#5e5e5e" stroke-width="3" fill="none"/><use xlink:href="#c" transform="matrix(1,0,0,1,228,220) translate(0 18.6)"/><path d="M420 226a6 6 0 0 1 6-6h103a6 6 0 0 1 6 6v8a14.5 14.5 0 0 1-4.24 10.24l-1.52 1.52A14.5 14.5 0 0 1 519 250h-93a6 6 0 0 1-6-6z" fill="#fff"/><path d="M535 220v20l-10 10H420" stroke="#5e5e5e" stroke-width="3" fill="none"/><path d="M420 226a6 6 0 0 1 6-6h148a6 6 0 0 1 6 6v88a6 6 0 0 1-6 6H426a6 6 0 0 1-6-6z" stroke="#5e5e5e" stroke-width="3" fill="none"/><use xlink:href="#d" transform="matrix(1,0,0,1,428,220) translate(0 18.6)"/><path d="M660 186a6 6 0 0 1 6-6h103a6 6 0 0 1 6 6v8a14.5 14.5 0 0 1-4.24 10.24l-1.52 1.52A14.5 14.5 0 0 1 759 210h-93a6 6 0 0 1-6-6z" fill="#fff"/><path d="M775 180v20l-10 10H660" stroke="#5e5e5e" stroke-width="3" fill="none"/><path d="M660 186a6 6 0 0 1 6-6h145.33a6 6 0 0 1 6 6v71.33a6 6 0 0 1-6 6H666a6 6 0 0 1-6-6z" stroke="#5e5e5e" stroke-width="3" fill="none"/><use xlink:href="#e" transform="matrix(1,0,0,1,668,180) translate(0 18.6)"/><path d="M660 286a6 6 0 0 1 6-6h103a6 6 0 0 1 6 6v8a14.5 14.5 0 0 1-4.24 10.24l-1.52 1.52A14.5 14.5 0 0 1 759 310h-93a6 6 0 0 1-6-6z" fill="#fff"/><path d="M775 280v20l-10 10H660" stroke="#5e5e5e" stroke-width="3" fill="none"/><path d="M660 286a6 6 0 0 1 6-6h145.33a6 6 0 0 1 6 6v71.33a6 6 0 0 1-6 6H666a6 6 0 0 1-6-6z" stroke="#5e5e5e" stroke-width="3" fill="none"/><use xlink:href="#f" transform="matrix(1,0,0,1,668,280) translate(0 18.6)"/><path d="M660 446a6 6 0 0 1 6-6h193a6 6 0 0 1 6 6v8a14.5 14.5 0 0 1-4.24 10.24l-1.52 1.52A14.5 14.5 0 0 1 849 470H666a6 6 0 0 1-6-6z" fill="#fff"/><path d="M865 440v20l-10 10H660" stroke="#5e5e5e" stroke-width="3" fill="none"/><path d="M660 446a6 6 0 0 1 6-6h228a6 6 0 0 1 6 6v128a6 6 0 0 1-6 6H666a6 6 0 0 1-6-6z" stroke="#5e5e5e" stroke-width="3" fill="none"/><use xlink:href="#g" transform="matrix(1,0,0,1,668,440) translate(0 18.6)"/><use xlink:href="#h" transform="matrix(1,0,0,1,668,440) translate(79 18.6)"/><use xlink:href="#i" transform="matrix(1,0,0,1,668,440) translate(89.95 18.6)"/><path d="M320 446a6 6 0 0 1 6-6h103a6 6 0 0 1 6 6v8a14.5 14.5 0 0 1-4.24 10.24l-1.52 1.52A14.5 14.5 0 0 1 419 470h-93a6 6 0 0 1-6-6z" fill="#fff"/><path d="M435 440v20l-10 10H320" stroke="#5e5e5e" stroke-width="3" fill="none"/><path d="M320 446a6 6 0 0 1 6-6h188a6 6 0 0 1 6 6v128a6 6 0 0 1-6 6H326a6 6 0 0 1-6-6z" stroke="#5e5e5e" stroke-width="3" fill="none"/><use xlink:href="#j" transform="matrix(1,0,0,1,328,440) translate(0 18.6)"/><path d="M180 106a6 6 0 0 1 6-6h103a6 6 0 0 1 6 6v8a14.5 14.5 0 0 1-4.24 10.24l-1.52 1.52A14.5 14.5 0 0 1 279 130h-93a6 6 0 0 1-6-6z" fill="#fff"/><path d="M295 100v20l-10 10H180" stroke="#5e5e5e" stroke-width="3" fill="none"/><path d="M180 106a6 6 0 0 1 6-6h748a6 6 0 0 1 6 6v488a6 6 0 0 1-6 6H186a6 6 0 0 1-6-6z" stroke="#5e5e5e" stroke-width="3" fill="none"/><use xlink:href="#k" transform="matrix(1,0,0,1,188,100) translate(0 18.6)"/><path d="M382.46 270h17.57" stroke="#5e5e5e" stroke-width="2" fill="none"/><path d="M382.5 271h-1.04v-2h1.03z" stroke="#5e5e5e" stroke-width=".05" fill="#5e5e5e"/><path d="M415.3 270l-14.27 4.64v-9.28z" stroke="#5e5e5e" stroke-width="2" fill="#5e5e5e"/><path d="M722.9 382.44V404a6 6 0 0 0 6 6H774a6 6 0 0 1 6 6v4.03" stroke="#5e5e5e" stroke-width="2" fill="none"/><path d="M723.9 382.47h-2v-1.03h2z" stroke="#5e5e5e" stroke-width=".05" fill="#5e5e5e"/><path d="M780 435.3l-4.64-14.27h9.28z" stroke="#5e5e5e" stroke-width="2" fill="#5e5e5e"/><path d="M260 382.5V404a6 6 0 0 0 6 6h113.34a6 6 0 0 1 6 6v4.03" stroke="#5e5e5e" stroke-width="2" fill="none"/><path d="M261 382.52h-2v-1.03h2z" stroke="#5e5e5e" stroke-width=".05" fill="#5e5e5e"/><path d="M385.34 435.3l-4.64-14.25h9.27z" stroke="#5e5e5e" stroke-width="2" fill="#5e5e5e"/><path d="M657.54 510H539.97" stroke="#5e5e5e" stroke-width="2" fill="none"/><path d="M658.54 511h-1.03v-2h1.04z" stroke="#5e5e5e" stroke-width=".05" fill="#5e5e5e"/><path d="M524.7 510l14.27-4.64v9.28z" stroke="#5e5e5e" stroke-width="2" fill="#5e5e5e"/><path d="M300 322.46V342a6 6 0 0 0 6 6h334.06" stroke="#5e5e5e" stroke-width="2" fill="none"/><path d="M301 322.5h-2v-1.04h2z" stroke="#5e5e5e" stroke-width=".05" fill="#5e5e5e"/><path d="M655.33 348l-14.27 4.64v-9.28z" stroke="#5e5e5e" stroke-width="2" fill="#5e5e5e"/><defs><path d="M160-131c35 5 61 23 61 61C221 17 115-2 30 0v-248c76 3 177-17 177 60 0 33-19 50-47 57zm-97-11c50-1 110 9 110-42 0-47-63-36-110-37v79zm0 115c55-2 124 14 124-45 0-56-70-42-124-44v89" id="l"/><path d="M141-36C126-15 110 5 73 4 37 3 15-17 15-53c-1-64 63-63 125-63 3-35-9-54-41-54-24 1-41 7-42 31l-33-3c5-37 33-52 76-52 45 0 72 20 72 64v82c-1 20 7 32 28 27v20c-31 9-61-2-59-35zM48-53c0 20 12 33 32 33 41-3 63-29 60-74-43 2-92-5-92 41" id="m"/><path d="M96-169c-40 0-48 33-48 73s9 75 48 75c24 0 41-14 43-38l32 2c-6 37-31 61-74 61-59 0-76-41-82-99-10-93 101-131 147-64 4 7 5 14 7 22l-32 3c-4-21-16-35-41-35" id="n"/><path d="M143 0L79-87 56-68V0H24v-261h32v163l83-92h37l-77 82L181 0h-38" id="o"/><path d="M16-82v-28h88v28H16" id="p"/><path d="M30 0v-248h187v28H63v79h144v27H63v87h162V0H30" id="q"/><path d="M117-194c89-4 53 116 60 194h-32v-121c0-31-8-49-39-48C34-167 62-67 57 0H25l-1-190h30c1 10-1 24 2 32 11-22 29-35 61-36" id="r"/><path d="M85-194c31 0 48 13 60 33l-1-100h32l1 261h-30c-2-10 0-23-3-31C134-8 116 4 85 4 32 4 16-35 15-94c0-66 23-100 70-100zm9 24c-40 0-46 34-46 75 0 40 6 74 45 74 42 0 51-32 51-76 0-42-9-74-50-73" id="s"/><g id="a"><use transform="matrix(0.05,0,0,0.05,0,0)" xlink:href="#l"/><use transform="matrix(0.05,0,0,0.05,12,0)" xlink:href="#m"/><use transform="matrix(0.05,0,0,0.05,22,0)" xlink:href="#n"/><use transform="matrix(0.05,0,0,0.05,31,0)" xlink:href="#o"/><use transform="matrix(0.05,0,0,0.05,40,0)" xlink:href="#p"/><use transform="matrix(0.05,0,0,0.05,45.95,0)" xlink:href="#q"/><use transform="matrix(0.05,0,0,0.05,57.95,0)" xlink:href="#r"/><use transform="matrix(0.05,0,0,0.05,67.95,0)" xlink:href="#s"/></g><path d="M115-194c55 1 70 41 70 98S169 2 115 4C84 4 66-9 55-30l1 105H24l-1-265h31l2 30c10-21 28-34 59-34zm-8 174c40 0 45-34 45-75s-6-73-45-74c-42 0-51 32-51 76 0 43 10 73 51 73" id="t"/><path d="M24-231v-30h32v30H24zM24 0v-190h32V0H24" id="u"/><g id="b"><use transform="matrix(0.05,0,0,0.05,0,0)" xlink:href="#m"/><use transform="matrix(0.05,0,0,0.05,10,0)" xlink:href="#t"/><use transform="matrix(0.05,0,0,0.05,20,0)" xlink:href="#u"/></g><path d="M100-194c62-1 85 37 85 99 1 63-27 99-86 99S16-35 15-95c0-66 28-99 85-99zM99-20c44 1 53-31 53-75 0-43-8-75-51-75s-53 32-53 75 10 74 51 75" id="v"/><path d="M59-47c-2 24 18 29 38 22v24C64 9 27 4 27-40v-127H5v-23h24l9-43h21v43h35v23H59v120" id="w"/><path d="M114-163C36-179 61-72 57 0H25l-1-190h30c1 12-1 29 2 39 6-27 23-49 58-41v29" id="x"/><path d="M24 0v-261h32V0H24" id="y"/><path d="M100-194c63 0 86 42 84 106H49c0 40 14 67 53 68 26 1 43-12 49-29l28 8c-11 28-37 45-77 45C44 4 14-33 15-96c1-61 26-98 85-98zm52 81c6-60-76-77-97-28-3 7-6 17-6 28h103" id="z"/><g id="c"><use transform="matrix(0.05,0,0,0.05,0,0)" xlink:href="#n"/><use transform="matrix(0.05,0,0,0.05,9,0)" xlink:href="#v"/><use transform="matrix(0.05,0,0,0.05,19,0)" xlink:href="#r"/><use transform="matrix(0.05,0,0,0.05,29,0)" xlink:href="#w"/><use transform="matrix(0.05,0,0,0.05,34,0)" xlink:href="#x"/><use transform="matrix(0.05,0,0,0.05,39.95,0)" xlink:href="#v"/><use transform="matrix(0.05,0,0,0.05,49.95,0)" xlink:href="#y"/><use transform="matrix(0.05,0,0,0.05,53.900000000000006,0)" xlink:href="#y"/><use transform="matrix(0.05,0,0,0.05,57.85,0)" xlink:href="#z"/><use transform="matrix(0.05,0,0,0.05,67.85000000000001,0)" xlink:href="#x"/></g><path d="M210-169c-67 3-38 105-44 169h-31v-121c0-29-5-50-35-48C34-165 62-65 56 0H25l-1-190h30c1 10-1 24 2 32 10-44 99-50 107 0 11-21 27-35 58-36 85-2 47 119 55 194h-31v-121c0-29-5-49-35-48" id="A"/><path d="M135-143c-3-34-86-38-87 0 15 53 115 12 119 90S17 21 10-45l28-5c4 36 97 45 98 0-10-56-113-15-118-90-4-57 82-63 122-42 12 7 21 19 24 35" id="B"/><g id="d"><use transform="matrix(0.05,0,0,0.05,0,0)" xlink:href="#A"/><use transform="matrix(0.05,0,0,0.05,14.950000000000001,0)" xlink:href="#v"/><use transform="matrix(0.05,0,0,0.05,24.950000000000003,0)" xlink:href="#s"/><use transform="matrix(0.05,0,0,0.05,34.95,0)" xlink:href="#z"/><use transform="matrix(0.05,0,0,0.05,44.95,0)" xlink:href="#y"/><use transform="matrix(0.05,0,0,0.05,48.900000000000006,0)" xlink:href="#B"/></g><path d="M206 0h-36l-40-164L89 0H53L-1-190h32L70-26l43-164h34l41 164 42-164h31" id="C"/><g id="e"><use transform="matrix(0.05,0,0,0.05,0,0)" xlink:href="#A"/><use transform="matrix(0.05,0,0,0.05,14.950000000000001,0)" xlink:href="#u"/><use transform="matrix(0.05,0,0,0.05,18.900000000000002,0)" xlink:href="#s"/><use transform="matrix(0.05,0,0,0.05,28.900000000000002,0)" xlink:href="#s"/><use transform="matrix(0.05,0,0,0.05,38.900000000000006,0)" xlink:href="#y"/><use transform="matrix(0.05,0,0,0.05,42.85000000000001,0)" xlink:href="#z"/><use transform="matrix(0.05,0,0,0.05,52.85,0)" xlink:href="#C"/><use transform="matrix(0.05,0,0,0.05,65.80000000000001,0)" xlink:href="#m"/><use transform="matrix(0.05,0,0,0.05,75.80000000000001,0)" xlink:href="#x"/><use transform="matrix(0.05,0,0,0.05,81.75000000000001,0)" xlink:href="#z"/></g><path d="M84 4C-5 8 30-112 23-190h32v120c0 31 7 50 39 49 72-2 45-101 50-169h31l1 190h-30c-1-10 1-25-2-33-11 22-28 36-60 37" id="D"/><g id="f"><use transform="matrix(0.05,0,0,0.05,0,0)" xlink:href="#D"/><use transform="matrix(0.05,0,0,0.05,10,0)" xlink:href="#w"/><use transform="matrix(0.05,0,0,0.05,15,0)" xlink:href="#u"/><use transform="matrix(0.05,0,0,0.05,18.95,0)" xlink:href="#y"/><use transform="matrix(0.05,0,0,0.05,22.9,0)" xlink:href="#B"/></g><path d="M115-194c53 0 69 39 70 98 0 66-23 100-70 100C84 3 66-7 56-30L54 0H23l1-261h32v101c10-23 28-34 59-34zm-8 174c40 0 45-34 45-75 0-40-5-75-45-74-42 0-51 32-51 76 0 43 10 73 51 73" id="E"/><g id="g"><use transform="matrix(0.05,0,0,0.05,0,0)" xlink:href="#s"/><use transform="matrix(0.05,0,0,0.05,10,0)" xlink:href="#m"/><use transform="matrix(0.05,0,0,0.05,20,0)" xlink:href="#w"/><use transform="matrix(0.05,0,0,0.05,25,0)" xlink:href="#m"/><use transform="matrix(0.05,0,0,0.05,35,0)" xlink:href="#E"/><use transform="matrix(0.05,0,0,0.05,45,0)" xlink:href="#z"/><use transform="matrix(0.05,0,0,0.05,55,0)" xlink:href="#B"/><use transform="matrix(0.05,0,0,0.05,64,0)" xlink:href="#z"/></g><use transform="matrix(0.05,0,0,0.05,0,0)" xlink:href="#p" id="h"/><path d="M30-248c87 1 191-15 191 75 0 78-77 80-158 76V0H30v-248zm33 125c57 0 124 11 124-50 0-59-68-47-124-48v98" id="F"/><path d="M177-190C167-65 218 103 67 71c-23-6-38-20-44-43l32-5c15 47 100 32 89-28v-30C133-14 115 1 83 1 29 1 15-40 15-95c0-56 16-97 71-98 29-1 48 16 59 35 1-10 0-23 2-32h30zM94-22c36 0 50-32 50-73 0-42-14-75-50-75-39 0-46 34-46 75s6 73 46 73" id="G"/><g id="i"><use transform="matrix(0.05,0,0,0.05,0,0)" xlink:href="#F"/><use transform="matrix(0.05,0,0,0.05,12,0)" xlink:href="#v"/><use transform="matrix(0.05,0,0,0.05,22,0)" xlink:href="#B"/><use transform="matrix(0.05,0,0,0.05,31,0)" xlink:href="#w"/><use transform="matrix(0.05,0,0,0.05,36,0)" xlink:href="#G"/><use transform="matrix(0.05,0,0,0.05,46,0)" xlink:href="#x"/><use transform="matrix(0.05,0,0,0.05,51.95,0)" xlink:href="#z"/><use transform="matrix(0.05,0,0,0.05,61.95,0)" xlink:href="#B"/></g><path d="M101-234c-31-9-42 10-38 44h38v23H63V0H32v-167H5v-23h27c-7-52 17-82 69-68v24" id="H"/><g id="j"><use transform="matrix(0.05,0,0,0.05,0,0)" xlink:href="#n"/><use transform="matrix(0.05,0,0,0.05,9,0)" xlink:href="#v"/><use transform="matrix(0.05,0,0,0.05,19,0)" xlink:href="#r"/><use transform="matrix(0.05,0,0,0.05,29,0)" xlink:href="#H"/><use transform="matrix(0.05,0,0,0.05,34,0)" xlink:href="#u"/><use transform="matrix(0.05,0,0,0.05,37.95,0)" xlink:href="#G"/></g><g id="k"><use transform="matrix(0.05,0,0,0.05,0,0)" xlink:href="#B"/><use transform="matrix(0.05,0,0,0.05,9,0)" xlink:href="#x"/><use transform="matrix(0.05,0,0,0.05,14.949999999999998,0)" xlink:href="#n"/></g></defs></g></svg>